<?xml version="1.0" encoding="utf-8"?>
<!-- Generator: Adobe Illustrator 16.0.0, SVG Export Plug-In . SVG Version: 6.00 Build 0)  -->
<!DOCTYPE svg PUBLIC "-//W3C//DTD SVG 1.1//EN" "http://www.w3.org/Graphics/SVG/1.1/DTD/svg11.dtd">
<svg version="1.1" id="图层_1" xmlns="http://www.w3.org/2000/svg" xmlns:xlink="http://www.w3.org/1999/xlink" x="0px" y="0px"
	 width="20px" height="20px" viewBox="2.672 2.5 20 20" enable-background="new 2.672 2.5 20 20" xml:space="preserve">
<g>
	<circle fill="#9E76AC" cx="12.672" cy="12.5" r="10"/>
	<g>
		<g>
			<g>
				<path fill="#FFFFFF" d="M16.355,8H9.527C9.409,8,9.313,8.113,9.313,8.253v0.742c0,0.016,0.004,0.031,0.004,0.04v4.82h0.211
					v0.021h6.83v-0.021h0.216V8.253C16.572,8.113,16.477,8,16.355,8z M8.974,15.188c-0.145-0.377-0.452-0.672-0.835-0.795
					c-0.127-0.039-0.259-0.063-0.399-0.063c-0.14,0-0.272,0.024-0.404,0.063c-0.378,0.123-0.69,0.418-0.833,0.795
					c-0.028,0.082-0.055,0.168-0.068,0.256c-0.013,0.07-0.021,0.145-0.021,0.221c0,0.012,0.004,0.025,0.004,0.029
					C6.432,16.413,7.019,17,7.739,17c0.72,0,1.305-0.587,1.322-1.309c0-0.004,0.005-0.018,0.005-0.028
					c0-0.076-0.009-0.149-0.024-0.222C9.031,15.354,9.005,15.27,8.974,15.188z M8.293,15.691c-0.018,0.297-0.26,0.527-0.554,0.527
					c-0.297,0-0.536-0.23-0.554-0.527c0-0.004,0-0.018,0-0.028c0-0.078,0.018-0.149,0.044-0.222
					c0.046-0.104,0.123-0.192,0.222-0.254c0.086-0.054,0.183-0.08,0.288-0.08c0.104,0,0.202,0.026,0.285,0.08
					c0.097,0.062,0.176,0.148,0.225,0.254c0.026,0.07,0.044,0.144,0.044,0.222C8.293,15.675,8.293,15.688,8.293,15.691z
					 M13.676,14.393c0.088-0.074,0.182-0.142,0.281-0.197H9.149c-0.039,0-0.074-0.019-0.101-0.041c0-0.008,0-0.012,0-0.018H9.026
					C9,14.105,8.982,14.07,8.982,14.021v-0.141V9.853C8.935,9.8,8.873,9.765,8.794,9.765H6.772c-0.058,0-0.11,0.018-0.154,0.053
					c-0.039,0.03-0.997,0.791-0.997,2.254v1.899c-0.044,0.043-0.07,0.103-0.07,0.166v1.307c0,0.141,0.114,0.25,0.255,0.25h0.272
					c0-0.004,0-0.019,0-0.029c0-0.076,0.009-0.148,0.018-0.221c0.009-0.088,0.026-0.172,0.053-0.256
					c0.092-0.313,0.272-0.588,0.514-0.795c0.119-0.105,0.253-0.188,0.4-0.256c0.105-0.048,0.22-0.082,0.338-0.113
					c0.11-0.021,0.225-0.035,0.339-0.035c0.114,0,0.229,0.014,0.338,0.035c0.119,0.031,0.233,0.065,0.339,0.113
					c0.145,0.063,0.281,0.149,0.396,0.252c-0.005,0.002-0.009,0.004-0.018,0.004h0.02c0.244,0.207,0.422,0.481,0.517,0.795
					c0.021,0.084,0.039,0.168,0.053,0.256c0.007,0.07,0.015,0.144,0.015,0.22c0,0.012,0,0.024,0,0.028h3.693
					c-0.002-0.004-0.002-0.018-0.002-0.028c0-0.076,0.009-0.149,0.018-0.222c0.011-0.088,0.026-0.172,0.053-0.254
					C13.254,14.874,13.436,14.6,13.676,14.393z M8.543,11.755H6.14c0.097-0.83,0.558-1.329,0.725-1.48h1.679L8.543,11.755
					L8.543,11.755z M15.986,15.188c-0.145-0.377-0.451-0.672-0.834-0.795c-0.127-0.039-0.26-0.063-0.399-0.063
					s-0.272,0.024-0.401,0.063c-0.381,0.123-0.688,0.418-0.836,0.795c-0.027,0.082-0.055,0.168-0.067,0.256
					c-0.013,0.07-0.021,0.145-0.021,0.221c0,0.012,0.005,0.025,0.005,0.029C13.445,16.413,14.032,17,14.753,17
					c0.722,0,1.306-0.587,1.322-1.309c0-0.004,0.005-0.018,0.005-0.028c0-0.076-0.01-0.149-0.023-0.222
					C16.045,15.354,16.02,15.27,15.986,15.188z M15.307,15.691c-0.018,0.297-0.26,0.527-0.554,0.527
					c-0.297,0-0.536-0.23-0.554-0.527c0-0.004,0-0.018,0-0.028c0-0.078,0.018-0.149,0.044-0.222
					c0.046-0.104,0.123-0.192,0.222-0.254c0.086-0.054,0.184-0.08,0.288-0.08s0.202,0.026,0.285,0.08
					c0.097,0.062,0.176,0.148,0.226,0.254c0.025,0.07,0.043,0.144,0.043,0.222C15.307,15.675,15.307,15.688,15.307,15.691z
					 M15.412,14.128c0.009,0,0.013,0.007,0.018,0.009c0.039,0.022,0.079,0.04,0.114,0.059c0.104,0.057,0.197,0.123,0.283,0.197
					c0.243,0.207,0.422,0.481,0.517,0.795c0.026,0.084,0.039,0.168,0.053,0.256c0.01,0.07,0.019,0.145,0.019,0.221
					c0,0.012,0,0.025,0,0.029h0.526c0.142,0,0.25-0.109,0.25-0.25v-1.248v-0.059c0-0.002,0-0.009,0-0.009H15.412z"/>
			</g>
		</g>
		<path fill="#FFFFFF" d="M16.98,8c0,0,2.813,0.415,2.813,6.752h-1.938c0,0-0.193-1.227-0.875-1.063V8z"/>
	</g>
</g>
</svg>
