<?xml version="1.0" encoding="utf-8"?>
<!-- Generator: Adobe Illustrator 16.0.0, SVG Export Plug-In . SVG Version: 6.00 Build 0)  -->
<!DOCTYPE svg PUBLIC "-//W3C//DTD SVG 1.1//EN" "http://www.w3.org/Graphics/SVG/1.1/DTD/svg11.dtd">
<svg version="1.1" id="图层_1" xmlns="http://www.w3.org/2000/svg" xmlns:xlink="http://www.w3.org/1999/xlink" x="0px" y="0px"
	 width="20px" height="20px" viewBox="2.672 2.5 20 20" enable-background="new 2.672 2.5 20 20" xml:space="preserve">
<g>
	<circle fill="#DEAA00" cx="12.672" cy="12.5" r="10"/>
	<g>
		<path fill="#FFFFFF" d="M16.841,20.336"/>
		<path fill="#FFFFFF" d="M7.905,15.846c0,0.683,0.553,1.235,1.235,1.235s1.235-0.553,1.235-1.235c0-0.682-0.553-1.235-1.235-1.235
			S7.905,15.164,7.905,15.846z M8.646,15.846c0-0.272,0.222-0.493,0.494-0.493s0.494,0.221,0.494,0.493
			c0,0.273-0.222,0.494-0.494,0.494S8.646,16.119,8.646,15.846z"/>
		<path fill="#FFFFFF" d="M16.326,15.846c0,0.683,0.553,1.235,1.235,1.235c0.681,0,1.234-0.553,1.234-1.235
			c0-0.682-0.554-1.235-1.234-1.235C16.879,14.61,16.326,15.164,16.326,15.846z M17.067,15.846c0-0.272,0.221-0.493,0.494-0.493
			c0.272,0,0.493,0.221,0.493,0.493c0,0.273-0.221,0.494-0.493,0.494C17.288,16.34,17.067,16.119,17.067,15.846z"/>
		<path fill="#FFFFFF" d="M19.323,12.206h-1.004l-1.541-3.33c-0.07-0.183-0.179-0.213-0.327-0.213h-3.202
			c-0.172,0-0.311,0.139-0.311,0.311v6.269c0,0.171,0.14,0.311,0.311,0.311h2.246c0.018,0,0.149,0,0.351,0
			c0.14-0.822,0.854-1.45,1.716-1.45c0.861,0,1.575,0.628,1.715,1.45h0.047c0.17,0,0.311-0.14,0.311-0.311v-2.727
			C19.634,12.345,19.493,12.206,19.323,12.206z M13.673,12.206c0.001-0.004,0.002-0.006,0.002-0.01V9.518
			c0-0.123,0.1-0.221,0.222-0.221h2.139c0.092,0,0.174,0.058,0.207,0.144l1.291,2.703c0.01,0.025,0.02,0.045,0.028,0.062H13.673
			L13.673,12.206z"/>
		<path fill="#FFFFFF" d="M12.259,8.663H6.021c-0.171,0-0.311,0.14-0.311,0.311v6.269c0,0.171,0.14,0.311,0.311,0.311h1.292h0.112
			c0.14-0.822,0.854-1.45,1.716-1.45c0.861,0,1.576,0.628,1.715,1.45h0.113h1.29c0.171,0,0.311-0.14,0.311-0.311V8.974
			C12.569,8.803,12.43,8.663,12.259,8.663z"/>
	</g>
</g>
</svg>
