<?xml version="1.0" encoding="utf-8"?>
<!-- Generator: Adobe Illustrator 16.0.0, SVG Export Plug-In . SVG Version: 6.00 Build 0)  -->
<!DOCTYPE svg PUBLIC "-//W3C//DTD SVG 1.1//EN" "http://www.w3.org/Graphics/SVG/1.1/DTD/svg11.dtd">
<svg version="1.1" id="图层_1" xmlns="http://www.w3.org/2000/svg" xmlns:xlink="http://www.w3.org/1999/xlink" x="0px" y="0px"
	 width="42px" height="38px" viewBox="0 0 42 38" enable-background="new 0 0 42 38" xml:space="preserve">
<g>
	<path fill="#667D26" d="M14.855,3.535h12.29c1.016,0,1.842-0.747,1.842-1.666c0-0.92-0.826-1.669-1.842-1.669h-12.29
		c-1.016,0-1.842,0.749-1.842,1.669C13.013,2.788,13.839,3.535,14.855,3.535z"/>
	<path fill="#667D26" d="M34.852,9.793c-1.017,0-1.842,0.75-1.842,1.673v20.56c0,1.345-1.248,2.439-2.783,2.439H11.772
		c-1.534,0-2.783-1.094-2.783-2.439v-20.56c0-0.923-0.825-1.673-1.841-1.673c-1.013,0-1.837,0.75-1.837,1.673v23.298
		c0,1.674,1.516,3.036,3.379,3.036h24.621c1.864,0,3.381-1.362,3.381-3.036V11.466C36.691,10.543,35.866,9.793,34.852,9.793z"/>
	<path fill="#667D26" d="M39.463,4.305H2.537C1.524,4.305,0.7,5.054,0.7,5.974c0,0.922,0.824,1.672,1.837,1.672h36.926
		c1.014,0,1.837-0.75,1.837-1.672C41.3,5.054,40.477,4.305,39.463,4.305z"/>
	<path fill="#667D26" d="M27.443,30.652V12.84c0-0.924-0.822-1.674-1.836-1.674s-1.838,0.75-1.838,1.674v17.813
		c0,0.923,0.824,1.674,1.838,1.674S27.443,31.575,27.443,30.652z"/>
	<path fill="#667D26" d="M18.23,30.652V12.84c0-0.924-0.824-1.674-1.838-1.674c-1.013,0-1.836,0.75-1.836,1.674v17.813
		c0,0.923,0.823,1.674,1.836,1.674C17.405,32.326,18.229,31.575,18.23,30.652z"/>
</g>
</svg>
