<?xml version="1.0" encoding="utf-8"?>
<!-- Generator: Adobe Illustrator 16.0.0, SVG Export Plug-In . SVG Version: 6.00 Build 0)  -->
<!DOCTYPE svg PUBLIC "-//W3C//DTD SVG 1.1//EN" "http://www.w3.org/Graphics/SVG/1.1/DTD/svg11.dtd">
<svg version="1.1" id="图层_1" xmlns="http://www.w3.org/2000/svg" xmlns:xlink="http://www.w3.org/1999/xlink" x="0px" y="0px"
	 width="20px" height="20px" viewBox="0 0 20 20" enable-background="new 0 0 20 20" xml:space="preserve">
<g>
	<circle fill="#9E76AC" cx="10" cy="10" r="10"/>
	<g>
		<path fill="#FFFFFF" d="M3.732,11.622c-0.116,0.038-0.2,0.147-0.2,0.276v0.182c0,0.163,0.133,0.295,0.295,0.295h1.152
			c0.007,0,0.012-0.001,0.017-0.001c0.037,0.731,0.642,1.313,1.384,1.313c0.742,0,1.347-0.584,1.384-1.315h1.969
			c0.039,0.731,0.644,1.315,1.386,1.315s1.346-0.584,1.384-1.315h0.222c0.039,0.731,0.643,1.315,1.385,1.315
			s1.347-0.584,1.385-1.315h1.07v-0.87h-0.437V6.313H7.852v1.473H6.078L5.341,9.393l-1.602,0.884L3.732,11.622z M7.805,9.367h-2.14
			l0.521-1.35h1.62L7.805,9.367L7.805,9.367z"/>
		<g>
			<g>
				<polygon fill="#FFFFFF" points="4.723,10.426 3.436,13.466 4.079,13.466 				"/>
			</g>
			<g>
				<polygon fill="#FFFFFF" points="4.583,13.466 4.723,10.426 5,13.466 				"/>
			</g>
			<g>
				<polygon fill="#FFFFFF" points="5.398,13.466 4.723,10.426 5.906,13.466 				"/>
			</g>
			<g>
				<polygon fill="#FFFFFF" points="6.798,10.426 5.509,13.466 6.153,13.466 				"/>
			</g>
			<g>
				<polygon fill="#FFFFFF" points="6.658,13.466 6.798,10.426 7.076,13.466 				"/>
			</g>
			<g>
				<polygon fill="#FFFFFF" points="7.472,13.466 6.798,10.426 7.98,13.466 				"/>
			</g>
			<g>
				<polygon fill="#FFFFFF" points="8.948,10.426 7.662,13.466 8.306,13.466 				"/>
			</g>
			<g>
				<polygon fill="#FFFFFF" points="8.811,13.466 8.948,10.426 9.227,13.466 				"/>
			</g>
			<g>
				<polygon fill="#FFFFFF" points="9.624,13.466 8.948,10.426 10.132,13.466 				"/>
			</g>
		</g>
	</g>
</g>
</svg>
