<?xml version="1.0" encoding="utf-8"?>
<!-- Generator: Adobe Illustrator 16.0.0, SVG Export Plug-In . SVG Version: 6.00 Build 0)  -->
<!DOCTYPE svg PUBLIC "-//W3C//DTD SVG 1.1//EN" "http://www.w3.org/Graphics/SVG/1.1/DTD/svg11.dtd">
<svg version="1.1" id="图层_1" xmlns="http://www.w3.org/2000/svg" xmlns:xlink="http://www.w3.org/1999/xlink" x="0px" y="0px"
	 width="20px" height="20px" viewBox="0 0 20 20" enable-background="new 0 0 20 20" xml:space="preserve">
<g>
	<circle fill="#DEAA00" cx="10" cy="10" r="10"/>
	<g>
		<g>
			<g>
				<path fill="#FFFFFF" d="M13.342,5.918H7.146c-0.106,0-0.193,0.102-0.193,0.23v0.673c0,0.014,0.004,0.028,0.004,0.036v4.372
					h0.191v0.021h6.194v-0.021h0.195V6.148C13.538,6.02,13.451,5.918,13.342,5.918z M6.646,12.438
					c-0.132-0.342-0.41-0.608-0.758-0.721c-0.115-0.035-0.234-0.058-0.361-0.058s-0.248,0.022-0.367,0.058
					c-0.342,0.111-0.626,0.379-0.756,0.721C4.38,12.514,4.355,12.59,4.343,12.67c-0.012,0.064-0.019,0.131-0.019,0.2
					c0,0.01,0.004,0.022,0.004,0.026c0.013,0.652,0.545,1.186,1.198,1.186c0.653,0,1.184-0.532,1.198-1.188
					c0-0.004,0.005-0.017,0.005-0.026c0-0.067-0.008-0.136-0.021-0.2C6.698,12.589,6.674,12.514,6.646,12.438z M6.028,12.896
					c-0.017,0.268-0.235,0.478-0.502,0.478c-0.27,0-0.487-0.21-0.504-0.478c0-0.004,0-0.018,0-0.027c0-0.07,0.017-0.135,0.04-0.2
					c0.042-0.095,0.111-0.175,0.201-0.231c0.078-0.047,0.166-0.07,0.262-0.07c0.095,0,0.183,0.023,0.259,0.07
					c0.088,0.058,0.159,0.136,0.204,0.231c0.023,0.063,0.039,0.13,0.039,0.2C6.028,12.88,6.028,12.893,6.028,12.896z M10.912,11.717
					c0.079-0.066,0.163-0.128,0.254-0.18H6.805c-0.036,0-0.066-0.016-0.092-0.035c0-0.009,0-0.011,0-0.018H6.692
					c-0.023-0.027-0.039-0.061-0.039-0.104v-0.128V7.6C6.611,7.551,6.555,7.52,6.482,7.52H4.649c-0.054,0-0.101,0.017-0.14,0.048
					C4.475,7.595,3.604,8.284,3.604,9.612v1.722c-0.039,0.04-0.063,0.093-0.063,0.15v1.187c0,0.127,0.104,0.228,0.23,0.228h0.247
					c0-0.004,0-0.018,0-0.026c0-0.07,0.009-0.136,0.016-0.2c0.009-0.081,0.024-0.156,0.048-0.232
					c0.084-0.283,0.247-0.532,0.467-0.722c0.107-0.096,0.23-0.171,0.362-0.231c0.096-0.043,0.2-0.073,0.306-0.102
					c0.101-0.02,0.204-0.031,0.309-0.031c0.103,0,0.207,0.013,0.306,0.031c0.108,0.027,0.212,0.059,0.308,0.102
					c0.131,0.058,0.255,0.137,0.359,0.229c-0.005,0.002-0.009,0.003-0.017,0.003H6.5c0.222,0.188,0.383,0.438,0.469,0.723
					c0.021,0.076,0.036,0.151,0.048,0.23c0.007,0.064,0.014,0.13,0.014,0.2c0,0.01,0,0.021,0,0.024h3.35
					c-0.001-0.004-0.001-0.016-0.001-0.024c0-0.07,0.008-0.136,0.016-0.201c0.01-0.081,0.023-0.155,0.048-0.229
					C10.527,12.152,10.693,11.904,10.912,11.717z M6.255,9.325H4.076c0.087-0.753,0.505-1.207,0.657-1.343h1.522V9.325L6.255,9.325
					L6.255,9.325z M13.006,12.438c-0.131-0.342-0.408-0.608-0.756-0.721c-0.116-0.035-0.234-0.058-0.363-0.058
					c-0.127,0-0.246,0.022-0.363,0.058c-0.344,0.111-0.623,0.379-0.756,0.721c-0.026,0.076-0.051,0.152-0.063,0.232
					c-0.011,0.064-0.021,0.131-0.021,0.2c0,0.01,0.006,0.022,0.006,0.026c0.013,0.652,0.545,1.186,1.196,1.186
					c0.657,0,1.187-0.532,1.2-1.188c0-0.004,0.004-0.017,0.004-0.026c0-0.067-0.008-0.136-0.021-0.2
					C13.059,12.589,13.036,12.514,13.006,12.438z M12.391,12.896c-0.017,0.268-0.236,0.478-0.504,0.478s-0.486-0.21-0.502-0.478
					c0-0.004,0-0.018,0-0.027c0-0.07,0.016-0.135,0.04-0.2c0.042-0.095,0.111-0.175,0.201-0.231c0.078-0.047,0.166-0.07,0.261-0.07
					c0.096,0,0.184,0.023,0.26,0.07c0.088,0.058,0.16,0.136,0.205,0.231c0.022,0.063,0.039,0.13,0.039,0.2
					C12.391,12.88,12.391,12.893,12.391,12.896z M12.484,11.477c0.009,0,0.011,0.008,0.018,0.008
					c0.034,0.021,0.072,0.037,0.104,0.054c0.095,0.052,0.179,0.112,0.256,0.18c0.222,0.188,0.384,0.437,0.47,0.722
					c0.024,0.076,0.035,0.151,0.047,0.231c0.009,0.063,0.017,0.131,0.017,0.2c0,0.01,0,0.023,0,0.025h0.479
					c0.129,0,0.229-0.1,0.229-0.227v-1.133v-0.055v-0.008L12.484,11.477L12.484,11.477z"/>
			</g>
		</g>
		<path fill="#FFFFFF" d="M13.907,5.918c0,0,2.552,0.377,2.552,6.125h-1.757c0,0-0.177-1.115-0.795-0.964V5.918z"/>
	</g>
</g>
</svg>
