<?xml version="1.0" encoding="utf-8"?>
<!-- Generator: Adobe Illustrator 16.0.0, SVG Export Plug-In . SVG Version: 6.00 Build 0)  -->
<!DOCTYPE svg PUBLIC "-//W3C//DTD SVG 1.1//EN" "http://www.w3.org/Graphics/SVG/1.1/DTD/svg11.dtd">
<svg version="1.1" id="图层_1" xmlns="http://www.w3.org/2000/svg" xmlns:xlink="http://www.w3.org/1999/xlink" x="0px" y="0px"
	 width="20px" height="20px" viewBox="0 0 20 20" enable-background="new 0 0 20 20" xml:space="preserve">
<g>
	<circle fill="#5C8AFF" cx="10" cy="10" r="10"/>
	<path fill="#FFFFFF" d="M4.543,10.114v2.038c0,0.191,0.156,0.348,0.345,0.348h1.215c0.185-0.563,0.715-0.973,1.338-0.973
		s1.151,0.408,1.337,0.973h2.027c0.178-0.574,0.713-0.992,1.346-0.992c0.631,0,1.166,0.418,1.344,0.992h0.88
		c0.188,0,0.344-0.154,0.344-0.348v-1.02H8.176c-0.107-0.019-0.269-0.086-0.278-0.339c-0.002-0.009-0.002-0.015-0.003-0.022v-0.088
		V7.155H6.786c-0.191,0-0.438,0.125-0.549,0.278L4.745,9.49C4.634,9.645,4.543,9.924,4.543,10.114z M5.205,10.229v-0.056
		c0-0.189,0.089-0.473,0.199-0.628l1.12-1.59c0.108-0.156,0.329-0.284,0.489-0.284c0.16,0,0.291,0.155,0.291,0.345v2.211
		c0,0.19-0.156,0.347-0.346,0.347H5.549C5.359,10.575,5.205,10.418,5.205,10.229L5.205,10.229z M11.016,12.916
		c0,0.627,0.508,1.135,1.133,1.135c0.627,0,1.136-0.509,1.136-1.135s-0.509-1.135-1.136-1.135
		C11.523,11.781,11.016,12.291,11.016,12.916z M11.38,12.916c0-0.424,0.347-0.77,0.771-0.77c0.425,0,0.77,0.346,0.77,0.77
		c0,0.425-0.345,0.771-0.77,0.771C11.727,13.688,11.38,13.342,11.38,12.916z M6.338,12.916c0,0.607,0.495,1.102,1.102,1.102
		c0.606,0,1.1-0.492,1.1-1.102c0-0.605-0.493-1.102-1.1-1.102S6.338,12.311,6.338,12.916z M6.705,12.916
		c0-0.405,0.33-0.734,0.736-0.734c0.405,0,0.735,0.329,0.735,0.734c0,0.407-0.33,0.734-0.735,0.734
		C7.034,13.652,6.705,13.323,6.705,12.916z M8.575,10.82h6.549c0.183,0,0.333-0.148,0.333-0.333V6.282
		c0-0.182-0.148-0.333-0.333-0.333H8.575c-0.184,0-0.333,0.15-0.333,0.333v4.205C8.242,10.67,8.392,10.82,8.575,10.82z"/>
</g>
</svg>
