<?xml version="1.0" encoding="utf-8"?>
<!-- Generator: Adobe Illustrator 16.0.0, SVG Export Plug-In . SVG Version: 6.00 Build 0)  -->
<!DOCTYPE svg PUBLIC "-//W3C//DTD SVG 1.1//EN" "http://www.w3.org/Graphics/SVG/1.1/DTD/svg11.dtd">
<svg version="1.1" id="图层_1" xmlns="http://www.w3.org/2000/svg" xmlns:xlink="http://www.w3.org/1999/xlink" x="0px" y="0px"
	 width="20px" height="20px" viewBox="2.672 2.5 20 20" enable-background="new 2.672 2.5 20 20" xml:space="preserve">
<g>
	<circle fill="#FF8C5C" cx="12.672" cy="12.5" r="10"/>
	<g>
		<g>
			<path fill="#FFFFFF" d="M20.41,14.221h-3.038c0.201,0.271,0.321,0.6,0.321,0.963h1.498l1.219-0.304V14.221z M14.9,15.184
				c0,0.659,0.529,1.187,1.183,1.187s1.185-0.528,1.185-1.187c0-0.648-0.531-1.18-1.185-1.18S14.9,14.534,14.9,15.184z
				 M15.438,15.184c0-0.351,0.291-0.639,0.646-0.639c0.356,0,0.647,0.288,0.647,0.639c0,0.361-0.291,0.649-0.647,0.649
				C15.729,15.833,15.438,15.544,15.438,15.184z M4.934,12.5v2.684h1.289c0-0.033,0.007-0.074,0.007-0.106
				c0.015-0.226,0.076-0.435,0.174-0.619c0.265-0.521,0.806-0.879,1.433-0.879c0.889,0,1.612,0.72,1.612,1.604h1.136
				c-0.002,0.023,0.593,0.023,0.596,0h3.293c0-0.363,0.121-0.692,0.324-0.963h-3.412c0.069-0.268,0.142-0.515,0.203-0.713
				c0.339,0.213,0.736,0.344,1.162,0.344h5.456c1.21,0,2.203-0.995,2.203-2.206v-0.811c0-1.214-0.993-2.204-2.203-2.204h-5.456
				c-1.211,0-2.203,0.99-2.203,2.204v0.811c0,0.555,0.214,1.057,0.553,1.441c-0.086,0.255-0.212,0.667-0.326,1.134H9.993v-5.59
				H7.297v0.643L6.44,11.856L4.934,12.5z M7.084,11.856l0.642-1.935h1.508v1.935H7.084z M6.652,15.184
				c0,0.659,0.529,1.187,1.181,1.187c0.656,0,1.186-0.528,1.186-1.187c0-0.648-0.532-1.18-1.186-1.18
				C7.182,14.004,6.652,14.534,6.652,15.184z M7.189,15.184c0-0.351,0.289-0.639,0.646-0.639c0.355,0,0.646,0.288,0.646,0.639
				c0,0.361-0.29,0.649-0.646,0.649S7.189,15.544,7.189,15.184z"/>
		</g>
	</g>
</g>
</svg>
