<?xml version="1.0" encoding="utf-8"?>
<!-- Generator: Adobe Illustrator 16.0.0, SVG Export Plug-In . SVG Version: 6.00 Build 0)  -->
<!DOCTYPE svg PUBLIC "-//W3C//DTD SVG 1.1//EN" "http://www.w3.org/Graphics/SVG/1.1/DTD/svg11.dtd">
<svg version="1.1" id="图层_1" xmlns="http://www.w3.org/2000/svg" xmlns:xlink="http://www.w3.org/1999/xlink" x="0px" y="0px"
	 width="20px" height="20px" viewBox="0 0 20 20" enable-background="new 0 0 20 20" xml:space="preserve">
<g>
	<circle fill="#FF5C77" cx="10" cy="10" r="10"/>
	<g>
		<path fill-rule="evenodd" clip-rule="evenodd" fill="#FFFFFF" d="M9.999,8.577c1.36,0,2.464-1.184,2.464-2.639
			s-1.104-2.638-2.464-2.638c-1.357,0-2.464,1.183-2.464,2.638S8.642,8.577,9.999,8.577L9.999,8.577 M9.999,8.577"/>
		<path fill-rule="evenodd" clip-rule="evenodd" fill="#FFFFFF" d="M9.716,12.429l2.271-3.226c-0.494-0.127-1.178-0.258-1.977-0.258
			c-0.054,0-1.448-0.111-2.896,0.552c0,0-0.185,0.019-0.545,0.575c-0.551,0.897-1.396,2.205-1.646,2.64
			c-0.174,0.286-0.614,0.861-0.328,1.464c0.315,0.601,0.584,1.057,0.689,1.133h1.362C6.619,14.277,7.578,12.582,9.716,12.429
			L9.716,12.429 M9.716,12.429"/>
		<path fill-rule="evenodd" clip-rule="evenodd" fill="#FFFFFF" d="M15.084,12.728c-0.417-0.72-1.351-2.18-1.424-2.312
			c-0.099-0.172-0.404-0.83-0.978-1.007c-0.063-0.019-0.143-0.046-0.236-0.074l-2.177,3.09c2.08,0.126,3.106,1.745,3.106,2.883
			l1.246,0.001c0,0,0.131,0.014,0.782-1.166C15.647,13.523,15.383,13.255,15.084,12.728L15.084,12.728 M15.084,12.728"/>
		<path fill-rule="evenodd" clip-rule="evenodd" fill="#FFFFFF" d="M9.999,13.191c-1.436,0-2.598,0.93-2.598,2.117h5.193
			C12.595,14.121,11.432,13.191,9.999,13.191L9.999,13.191 M9.999,13.191"/>
	</g>
	<circle fill="#FF5C77" cx="10" cy="10" r="10"/>
	<g>
		<path fill-rule="evenodd" clip-rule="evenodd" fill="#FFFFFF" d="M9.999,8.577c1.36,0,2.464-1.184,2.464-2.639
			s-1.104-2.638-2.464-2.638c-1.357,0-2.464,1.183-2.464,2.638S8.642,8.577,9.999,8.577L9.999,8.577 M9.999,8.577"/>
		<path fill-rule="evenodd" clip-rule="evenodd" fill="#FFFFFF" d="M9.716,12.429l2.271-3.226c-0.494-0.127-1.178-0.258-1.977-0.258
			c-0.054,0-1.448-0.111-2.896,0.552c0,0-0.185,0.019-0.545,0.575c-0.551,0.897-1.396,2.205-1.646,2.64
			c-0.174,0.286-0.614,0.861-0.328,1.464c0.315,0.601,0.584,1.057,0.689,1.133h1.362C6.619,14.277,7.578,12.582,9.716,12.429
			L9.716,12.429 M9.716,12.429"/>
		<path fill-rule="evenodd" clip-rule="evenodd" fill="#FFFFFF" d="M15.084,12.728c-0.417-0.72-1.351-2.18-1.424-2.312
			c-0.099-0.172-0.404-0.83-0.978-1.007c-0.063-0.019-0.143-0.046-0.236-0.074l-2.177,3.09c2.08,0.126,3.106,1.745,3.106,2.883
			l1.246,0.001c0,0,0.131,0.014,0.782-1.166C15.647,13.523,15.383,13.255,15.084,12.728L15.084,12.728 M15.084,12.728"/>
		<path fill-rule="evenodd" clip-rule="evenodd" fill="#FFFFFF" d="M9.999,13.191c-1.436,0-2.598,0.93-2.598,2.117h5.193
			C12.595,14.121,11.432,13.191,9.999,13.191L9.999,13.191 M9.999,13.191"/>
	</g>
</g>
</svg>
