<?xml version="1.0" encoding="utf-8"?>
<!-- Generator: Adobe Illustrator 16.0.0, SVG Export Plug-In . SVG Version: 6.00 Build 0)  -->
<!DOCTYPE svg PUBLIC "-//W3C//DTD SVG 1.1//EN" "http://www.w3.org/Graphics/SVG/1.1/DTD/svg11.dtd">
<svg version="1.1" id="图层_1" xmlns="http://www.w3.org/2000/svg" xmlns:xlink="http://www.w3.org/1999/xlink" x="0px" y="0px"
	 width="20px" height="20px" viewBox="0 0 20 20" enable-background="new 0 0 20 20" xml:space="preserve">
<g>
	<circle fill="#9E76AC" cx="10" cy="10" r="10"/>
	<path fill="#FFFFFF" d="M6.056,12.488c-0.219,0.084-0.415,0.188-0.586,0.32c-0.17,0.125-0.29,0.297-0.353,0.506
		c-0.04,0.121-0.073,0.272-0.098,0.459c-0.053,0.42,0.021,1.865,0.007,1.783c0.03,0.172,0.069,0.301,0.129,0.391
		C5.19,16,5.302,16.061,5.485,16.12c0.185,0.062,1.059,0.082,1.336,0.144c0.026,0.004,0.049,0.008,0.073,0.01l0.376-2.192
		c0-0.114,0.027-0.216,0.076-0.313l0.206-1.929c-0.181,0.071-0.376,0.14-0.587,0.198C6.729,12.102,6.274,12.402,6.056,12.488z
		 M12.723,10.051c0.486-0.67,0.782-1.515,0.782-2.446c0-2.143-1.569-3.878-3.504-3.878c-1.936,0-3.504,1.735-3.504,3.878
		c0,1.609,0.888,2.983,2.146,3.572c-0.105,0.052-0.438,0.263-0.481,0.304c0.062,0.069,0.096,0.164,0.086,0.265l-0.249,1.743h4.005
		l-0.25-1.743c-0.01-0.101,0.023-0.194,0.088-0.265c-0.045-0.041-0.377-0.252-0.478-0.301c0.313-0.147,0.604-0.341,0.864-0.576
		C12.492,10.484,12.682,10.239,12.723,10.051z M11.816,8.499c-0.006,0.093-0.008,0.185-0.006,0.273
		c0.008,0.054,0.01,0.106,0.01,0.156c0,0.033,0,0.062-0.004,0.091C11.82,9.1,11.82,9.148,11.82,9.148
		c-0.01,0.024-0.024,0.049-0.036,0.073C11.689,9.626,11.402,9.97,11,10.19v0.796c0,0.416-0.333,0.748-0.748,0.748H9.749
		C9.333,11.734,9,11.402,9,10.986v-0.8c-0.492-0.27-0.819-0.731-0.819-1.257c0-0.051,0.001-0.107,0.011-0.16l0.017-0.27
		c0.046-0.345,0.155-0.68,0.378-0.895c0.34-0.323,0.501-0.854,0.585-1.261C9.245,6.7,9.411,7.134,9.795,7.232
		c0.647,0.166,0.936,0.176,1.229,0.181c0.146,0.004,0.737-0.025,0.797,0.639c0,0-0.004,0.189-0.014,0.447H11.816z M14.98,13.773
		c-0.023-0.187-0.059-0.338-0.098-0.459c-0.063-0.209-0.182-0.381-0.354-0.506c-0.172-0.132-0.365-0.236-0.584-0.32
		c-0.219-0.086-0.674-0.387-0.91-0.451c-0.213-0.059-0.407-0.127-0.587-0.198l0.204,1.929c0.05,0.098,0.078,0.198,0.078,0.313
		l0.375,2.192c0.022-0.002,0.047-0.006,0.072-0.01c0.276-0.062,1.151-0.082,1.338-0.144c0.182-0.062,0.293-0.12,0.33-0.173
		c0.059-0.09,0.098-0.219,0.127-0.391C14.96,15.641,15.033,14.193,14.98,13.773z"/>
	<circle fill="#9E76AC" cx="10" cy="10" r="10"/>
	<path fill="#FFFFFF" d="M6.056,12.488c-0.219,0.084-0.415,0.188-0.586,0.32c-0.17,0.125-0.29,0.297-0.353,0.506
		c-0.04,0.121-0.073,0.272-0.098,0.459c-0.053,0.42,0.021,1.865,0.007,1.783c0.03,0.172,0.069,0.301,0.129,0.391
		C5.19,16,5.302,16.061,5.485,16.12c0.185,0.062,1.059,0.082,1.336,0.144c0.026,0.004,0.049,0.008,0.073,0.01l0.376-2.192
		c0-0.114,0.027-0.216,0.076-0.313l0.206-1.929c-0.181,0.071-0.376,0.14-0.587,0.198C6.729,12.102,6.274,12.402,6.056,12.488z
		 M12.723,10.051c0.486-0.67,0.782-1.515,0.782-2.446c0-2.143-1.569-3.878-3.504-3.878c-1.936,0-3.504,1.735-3.504,3.878
		c0,1.609,0.888,2.983,2.146,3.572c-0.105,0.052-0.438,0.263-0.481,0.304c0.062,0.069,0.096,0.164,0.086,0.265l-0.249,1.743h4.005
		l-0.25-1.743c-0.01-0.101,0.023-0.194,0.088-0.265c-0.045-0.041-0.377-0.252-0.478-0.301c0.313-0.147,0.604-0.341,0.864-0.576
		C12.492,10.484,12.682,10.239,12.723,10.051z M11.816,8.499c-0.006,0.093-0.008,0.185-0.006,0.273
		c0.008,0.054,0.01,0.106,0.01,0.156c0,0.033,0,0.062-0.004,0.091C11.82,9.1,11.82,9.148,11.82,9.148
		c-0.01,0.024-0.024,0.049-0.036,0.073C11.689,9.626,11.402,9.97,11,10.19v0.796c0,0.416-0.333,0.748-0.748,0.748H9.749
		C9.333,11.734,9,11.402,9,10.986v-0.8c-0.492-0.27-0.819-0.731-0.819-1.257c0-0.051,0.001-0.107,0.011-0.16l0.017-0.27
		c0.046-0.345,0.155-0.68,0.378-0.895c0.34-0.323,0.501-0.854,0.585-1.261C9.245,6.7,9.411,7.134,9.795,7.232
		c0.647,0.166,0.936,0.176,1.229,0.181c0.146,0.004,0.737-0.025,0.797,0.639c0,0-0.004,0.189-0.014,0.447H11.816z M14.98,13.773
		c-0.023-0.187-0.059-0.338-0.098-0.459c-0.063-0.209-0.182-0.381-0.354-0.506c-0.172-0.132-0.365-0.236-0.584-0.32
		c-0.219-0.086-0.674-0.387-0.91-0.451c-0.213-0.059-0.407-0.127-0.587-0.198l0.204,1.929c0.05,0.098,0.078,0.198,0.078,0.313
		l0.375,2.192c0.022-0.002,0.047-0.006,0.072-0.01c0.276-0.062,1.151-0.082,1.338-0.144c0.182-0.062,0.293-0.12,0.33-0.173
		c0.059-0.09,0.098-0.219,0.127-0.391C14.96,15.641,15.033,14.193,14.98,13.773z"/>
</g>
</svg>
