<?xml version="1.0" encoding="utf-8"?>
<!-- Generator: Adobe Illustrator 16.0.0, SVG Export Plug-In . SVG Version: 6.00 Build 0)  -->
<!DOCTYPE svg PUBLIC "-//W3C//DTD SVG 1.1//EN" "http://www.w3.org/Graphics/SVG/1.1/DTD/svg11.dtd">
<svg version="1.1" id="图层_1" xmlns="http://www.w3.org/2000/svg" xmlns:xlink="http://www.w3.org/1999/xlink" x="0px" y="0px"
	 width="20px" height="20px" viewBox="0 0 20 20" enable-background="new 0 0 20 20" xml:space="preserve">
<g>
	<circle fill="#71B33E" cx="10" cy="10" r="10"/>
	<circle fill="#71B33E" cx="10" cy="10" r="10"/>
	<path fill="#FFFFFF" d="M12.822,7.388c0.035,0.02,0.072,0.042,0.107,0.066l0.106,0.073l0.003,0.129
		C13.045,8.031,13,8.348,12.9,8.593c-0.09,0.224-0.225,0.391-0.402,0.492c-0.123,0.436-0.268,0.84-0.471,1.179
		c-0.233,0.39-0.543,0.691-0.979,0.853c-0.193,0.07-0.693,0.105-1.173,0.098c-0.463-0.007-0.928-0.053-1.112-0.138
		c-0.396-0.183-0.675-0.49-0.886-0.873c-0.181-0.327-0.31-0.706-0.423-1.108C7.27,8.999,7.13,8.832,7.036,8.607
		c-0.103-0.245-0.149-0.568-0.143-0.95l0.002-0.13l0.107-0.072c0.028-0.02,0.055-0.037,0.083-0.053
		C6.964,5.9,7.009,5.345,7.567,4.71c1.088-0.891,3.582-0.859,4.683-0.052C13.001,5.367,13.053,6.161,12.822,7.388L12.822,7.388z
		 M10.537,11.73l0.018,0.345l-0.205,0.337l0.284,1.865l1.165-2.502l1.773-0.063c0.914,0.866,1.503,2.907,1.357,4.239
		c-3.294,0-6.588,0-9.883,0c0.024-1.17,0.239-3.166,1.404-4.183l1.602,0.016l1.5,2.476l0.282-1.85l-0.204-0.337l0.016-0.344
		C10.035,11.709,10.149,11.709,10.537,11.73L10.537,11.73z M11.865,6.854c-0.705,0.138-1.754,0.258-2.584-0.208
		c-0.318-0.18-0.786,0.188-1.168,0.15C7.995,7.032,7.907,7.288,7.855,7.56L7.813,7.786L7.585,7.763
		C7.544,7.759,7.5,7.764,7.454,7.779c-0.02,0.007-0.041,0.015-0.062,0.025c0.006,0.25,0.042,0.457,0.106,0.612
		c0.056,0.136,0.136,0.226,0.24,0.258L7.87,8.715l0.037,0.133c0.111,0.412,0.235,0.801,0.41,1.116
		c0.162,0.294,0.37,0.527,0.658,0.659c0.121,0.055,0.506,0.087,0.908,0.093c0.428,0.007,0.855-0.017,0.996-0.069
		c0.316-0.116,0.545-0.342,0.723-0.639c0.19-0.319,0.326-0.723,0.445-1.167l0.033-0.126l0.126-0.044
		c0.101-0.036,0.178-0.126,0.231-0.264c0.063-0.154,0.097-0.357,0.103-0.603c-0.019-0.009-0.037-0.017-0.056-0.022
		c-0.043-0.016-0.088-0.022-0.129-0.02l-0.221,0.014l-0.041-0.217C12.047,7.31,11.969,7.072,11.865,6.854z"/>
</g>
</svg>
