<?xml version="1.0" encoding="utf-8"?>
<!-- Generator: Adobe Illustrator 16.0.0, SVG Export Plug-In . SVG Version: 6.00 Build 0)  -->
<!DOCTYPE svg PUBLIC "-//W3C//DTD SVG 1.1//EN" "http://www.w3.org/Graphics/SVG/1.1/DTD/svg11.dtd">
<svg version="1.1" id="图层_1" xmlns="http://www.w3.org/2000/svg" xmlns:xlink="http://www.w3.org/1999/xlink" x="0px" y="0px"
	 width="20px" height="20px" viewBox="0 0 20 20" enable-background="new 0 0 20 20" xml:space="preserve">
<circle fill="#5C8AFF" cx="10" cy="10" r="10"/>
<path fill="#FFFFFF" d="M12.782,16L12.782,16c-0.114,0-5.243,0-5.518,0l0,0H4.948l1.236-2.879c0,0,0.428-0.959,0.96-0.959h5.918
	c0.527,0,0.961,0.959,0.961,0.959L15.052,16H12.782z M7.688,12.645c-0.42,0-0.762,0.765-0.762,0.765l-0.979,2.104h1.33
	c0.067-1.133,0.333-2.25,0.503-2.869H7.688z M8.751,12.645c0.201,1.444,0.711,2.478,1.313,2.478c0.6,0,1.112-1.03,1.311-2.478H8.751
	z M13.236,13.406c0,0-0.342-0.764-0.764-0.764h-0.182c0.174,0.559,0.43,1.563,0.479,2.871h1.278L13.236,13.406z M9.921,11.611
	c-2.104,0-3.805-1.703-3.805-3.807C6.116,5.705,7.817,4,9.921,4c2.103,0,3.806,1.705,3.806,3.805
	C13.727,9.908,12.021,11.611,9.921,11.611z M10.802,5.541C9.759,8.342,8.06,7.764,7.017,7.804c0,1.604,1.303,2.905,2.905,2.905
	c1.602,0,2.9-1.301,2.9-2.905C10.824,7.362,11.882,6.221,10.802,5.541z"/>
</svg>
