<?xml version="1.0" encoding="utf-8"?>
<!-- Generator: Adobe Illustrator 16.0.0, SVG Export Plug-In . SVG Version: 6.00 Build 0)  -->
<!DOCTYPE svg PUBLIC "-//W3C//DTD SVG 1.1//EN" "http://www.w3.org/Graphics/SVG/1.1/DTD/svg11.dtd">
<svg version="1.1" id="图层_1" xmlns="http://www.w3.org/2000/svg" xmlns:xlink="http://www.w3.org/1999/xlink" x="0px" y="0px"
	 width="42px" height="38px" viewBox="0 0 42 38" enable-background="new 0 0 42 38" xml:space="preserve">
<path fill="#667D26" d="M38.686,13.836C35.407,11.029,25.783,2.657,25.089,2.05c-0.328-0.329-1.856-1.731-3.995-1.754h-0.056
	c-1.401,0-2.703,0.588-3.872,1.751l-3.271,2.835c-0.309-0.963-0.953-1.773-1.833-2.244c-1.023-0.552-2.155-0.569-3.198-0.054
	C7.592,3.212,6.772,4.587,6.772,6.088v5.069l-4.347,3.75c-0.388,0.339-0.697,0.723-0.923,1.152
	c-0.621,1.182-0.668,2.434-0.129,3.537c0.368,0.76,1.036,1.397,1.876,1.793l3.165,1.481L6.543,34c0,0.051,0.003,0.107,0.007,0.157
	c0.153,1.172,0.963,3.228,3.042,3.524c0.066,0.01,0.126,0.012,0.189,0.012h3.045c0.046,0.008,0.093,0.011,0.146,0.011h3.979h8.083
	h7.31c0.066,0,0.129-0.003,0.194-0.015c2.071-0.295,2.889-2.357,3.042-3.522c0.004-0.05,0.007-0.106,0.007-0.156l0.106-8.967
	c0.007-0.047,0.01-0.093,0.01-0.14l0.033-2.342l2.963-1.451c0.209-0.096,2.002-0.969,2.268-2.872
	C41.169,16.785,40.402,15.304,38.686,13.836z M18.287,35.038v-8.854c0-0.254,0.202-0.457,0.458-0.457h4.5
	c0.252,0,0.458,0.203,0.458,0.457v8.854H18.287z M38.322,17.866c-0.055,0.405-0.608,0.757-0.771,0.837l-3.726,1.822
	c-0.448,0.224-0.734,0.678-0.744,1.183v0.11c-0.017,0.064-0.021,0.129-0.021,0.195l-0.14,11.858c-0.043,0.224-0.249,1.036-0.7,1.166
	h-2.923c-0.047-0.004-0.096-0.011-0.129,0.005h-2.8v-8.859c0-1.725-1.405-3.125-3.125-3.125h-4.5c-1.724,0-3.125,1.4-3.125,3.125
	v8.859H9.921c-0.458-0.136-0.658-0.956-0.704-1.169L9.081,22.045c0-0.068-0.007-0.141-0.017-0.206
	c-0.027-0.198-0.097-0.385-0.203-0.541c-0.103-0.157-0.233-0.292-0.392-0.392c-0.063-0.041-0.123-0.077-0.186-0.104l-3.892-1.823
	c-0.293-0.139-0.512-0.335-0.618-0.548c-0.06-0.123-0.24-0.494,0.086-1.119c0.073-0.136,0.179-0.266,0.312-0.378l4.809-4.148
	c0.296-0.256,0.465-0.621,0.465-1.01V6.088c0-0.488,0.246-0.936,0.612-1.116c0.272-0.135,0.478-0.129,0.744,0.014
	c0.385,0.209,0.634,0.674,0.634,1.198v1.445c0,0.522,0.302,0.996,0.777,1.212c0.472,0.213,1.033,0.137,1.425-0.209l5.31-4.609
	c0.023-0.016,0.047-0.04,0.07-0.063c0.667-0.674,1.328-1.003,2.019-1.003h0.01c1.188,0.006,2.155,0.979,2.162,0.983
	c0.026,0.033,0.053,0.06,0.086,0.086c0.103,0.09,10.258,8.931,13.653,11.834C38.313,17.029,38.346,17.689,38.322,17.866z"/>
</svg>
