<?xml version="1.0" encoding="utf-8"?>
<!-- Generator: Adobe Illustrator 16.0.0, SVG Export Plug-In . SVG Version: 6.00 Build 0)  -->
<!DOCTYPE svg PUBLIC "-//W3C//DTD SVG 1.1//EN" "http://www.w3.org/Graphics/SVG/1.1/DTD/svg11.dtd">
<svg version="1.1" id="图层_1" xmlns="http://www.w3.org/2000/svg" xmlns:xlink="http://www.w3.org/1999/xlink" x="0px" y="0px"
	 width="42px" height="38px" viewBox="0 0 42 38" enable-background="new 0 0 42 38" xml:space="preserve">
<g>
	<path fill="#667D26" d="M10.882,19.986c-1.789,0-3.244,1.474-3.244,3.287c0,1.807,1.455,3.278,3.244,3.278
		c1.785,0,3.24-1.472,3.245-3.284C14.122,21.458,12.667,19.986,10.882,19.986z M10.882,24.551c-0.685,0-1.244-0.572-1.244-1.281
		s0.558-1.283,1.244-1.283c0.684,0,1.243,0.576,1.245,1.279C12.125,23.975,11.567,24.551,10.882,24.551z"/>
	<path fill="#667D26" d="M30.594,19.986c-1.789,0-3.246,1.474-3.246,3.287c0,1.807,1.457,3.278,3.246,3.278
		c1.783,0,3.238-1.472,3.244-3.286C33.832,21.458,32.377,19.986,30.594,19.986z M30.594,24.551c-0.686,0-1.246-0.572-1.246-1.281
		s0.56-1.283,1.246-1.283c0.684,0,1.242,0.576,1.244,1.279C31.836,23.975,31.277,24.551,30.594,24.551z"/>
	<path fill="#667D26" d="M34.365,15.199l-4.192-8.204c-0.452-0.889-1.413-1.511-2.336-1.511H14.083c-0.908,0-1.891,0.636-2.334,1.51
		l-4.19,8.202c-0.329,0.64-0.141,1.427,0.431,1.826c0.222,0.157,0.489,0.244,0.753,0.244H33.18c0.738,0,1.34-0.63,1.338-1.404
		C34.518,15.63,34.469,15.411,34.365,15.199z M9.771,15.266l3.761-7.365c0.124-0.245,0.433-0.417,0.552-0.417h13.754
		c0.117,0,0.424,0.163,0.555,0.42l3.762,7.362H9.771z"/>
	<path fill="#667D26" d="M41.585,8.903C40.979,7.91,39.73,7.337,38.09,7.337c-1.189,0-1.387,0.463-1.387,2.361v1.208
		c-0.139-0.236-0.266-0.458-0.418-0.711c-0.217-0.36-0.443-0.759-0.691-1.199l-0.107-0.198c-0.237-0.436-0.473-0.867-0.707-1.313
		c-1.575-2.947-1.911-3.533-2.569-4.475c-0.172-0.25-0.375-0.473-0.601-0.662c-0.521-0.445-1.129-0.69-1.762-0.69
		c-0.002,0-0.002,0-0.004,0L12.243,1.658c-0.004,0-0.009,0.001-0.012,0.001h-0.1c-0.582,0-1.191,0.245-1.715,0.691
		c-0.228,0.194-0.429,0.417-0.599,0.66c-0.684,0.98-1.07,1.674-2.573,4.479C7.026,7.905,6.806,8.31,6.584,8.718l-0.15,0.277
		c-0.251,0.443-0.478,0.842-0.696,1.203c-0.16,0.266-0.295,0.501-0.44,0.748V9.699c0-1.898-0.197-2.361-1.389-2.361
		c-1.64,0-2.888,0.57-3.494,1.566c-0.663,1.097-0.363,2.451,0.669,3.061c0.556,0.324,1.42,0.525,2.554,0.664
		c0.227,0.024,0.455,0.037,0.682,0.056c-1.198,2.275-1.604,3.743-1.604,5.417v17.044c0,0.658,0.477,1.195,1.063,1.195h4.584
		c0.38,0,0.733-0.229,0.919-0.598l1.989-3.889h5.594h8.296h5.595l1.986,3.891c0.191,0.367,0.545,0.596,0.923,0.596h4.582
		c0.585,0,1.062-0.537,1.062-1.197V18.1c0-1.677-0.408-3.145-1.609-5.424c0.221-0.019,0.443-0.023,0.664-0.048
		c1.133-0.139,1.992-0.34,2.552-0.664C41.948,11.355,42.248,10,41.585,8.903z M31.372,29.461h-6.211h-8.296h-6.211
		c-0.374,0-0.727,0.229-0.925,0.6l-1.982,3.887H4.843V18.102c0-0.723,0.131-1.433,0.438-2.279c0.055-0.079,0.117-0.15,0.153-0.246
		c0.39-1.044,1.02-2.248,2.106-4.022c0.246-0.403,0.506-0.853,0.797-1.365c0.232-0.418,0.469-0.85,0.795-1.454
		c1.472-2.713,1.845-3.376,2.452-4.234c0.066-0.091,0.137-0.167,0.206-0.23c0.183-0.158,0.359-0.215,0.492-0.215
		c0.001,0,0.002,0,0.003,0h17.486c0.104,0,0.279,0.057,0.457,0.207c0.076,0.071,0.147,0.146,0.211,0.236
		c0.58,0.82,0.925,1.414,2.453,4.237c0.328,0.605,0.563,1.038,0.799,1.457c0.289,0.509,0.549,0.96,0.797,1.363
		c1.082,1.772,1.711,2.975,2.105,4.022c0.034,0.091,0.095,0.159,0.146,0.234c0.311,0.852,0.443,1.564,0.443,2.289v15.845h-2.904
		l-1.984-3.891C32.1,29.689,31.746,29.461,31.372,29.461z M1.768,10.36c-0.512-0.303,0.016-1.175,1.998-1.218
		C3.768,9.281,3.77,9.453,3.77,9.699v1.139C2.825,10.723,2.104,10.553,1.768,10.36z M40.232,10.359
		c-0.337,0.193-1.057,0.363-2.002,0.478V9.699c0-0.247,0.002-0.419,0.003-0.559C40.213,9.185,40.738,10.056,40.232,10.359z"/>
</g>
</svg>
