<?xml version="1.0" encoding="utf-8"?>
<!-- Generator: Adobe Illustrator 16.0.0, SVG Export Plug-In . SVG Version: 6.00 Build 0)  -->
<!DOCTYPE svg PUBLIC "-//W3C//DTD SVG 1.1//EN" "http://www.w3.org/Graphics/SVG/1.1/DTD/svg11.dtd">
<svg version="1.1" id="图层_1" xmlns="http://www.w3.org/2000/svg" xmlns:xlink="http://www.w3.org/1999/xlink" x="0px" y="0px"
	 width="20px" height="20px" viewBox="2.672 2.5 20 20" enable-background="new 2.672 2.5 20 20" xml:space="preserve">
<g>
	<circle fill="#D76C00" cx="12.672" cy="12.5" r="10"/>
	<g>
		<path fill="#FFFFFF" d="M15.348,16.099h-0.068c0,0.005,0,0.011,0,0.016h0.067C15.347,16.109,15.348,16.104,15.348,16.099z"/>
		<path fill="#FFFFFF" d="M18.329,13.927h-8.028c-0.126,0-0.229,0.117-0.229,0.263v1.661c0,0.146,0.103,0.264,0.229,0.264
			c0,0,0.917,0,2.141,0c-0.01-0.394,0.253-1.67,1.422-1.668c1.188,0.003,1.46,1.385,1.412,1.666c0.025,0,0.036,0,0.063,0
			c-0.048-0.317,0.231-1.647,1.397-1.685c1.055-0.033,1.508,1.25,1.437,1.687h0.156c0.127,0,0.229-0.118,0.229-0.264v-1.661
			C18.559,14.044,18.456,13.927,18.329,13.927z"/>
		<path fill="#FFFFFF" d="M11.992,16.31h-1.659c-0.023,0-0.077-0.003-0.077-0.023v-0.169c0-0.021,0.053-0.022,0.077-0.022h1.659
			c0.022,0,0.076,0.002,0.076,0.022v0.169C12.068,16.307,12.015,16.31,11.992,16.31z"/>
		<path fill="#FFFFFF" d="M12.463,16.139c0-0.926,0.61-1.679,1.4-1.679c0.787,0,1.397,0.782,1.397,1.679"/>
		<path fill="#FFFFFF" d="M15.341,16.139c0.039-0.901,0.625-1.694,1.413-1.694s1.43,0.851,1.414,1.694"/>
		<path fill="#FFFFFF" d="M10.067,9.24V9.233H10.06c-0.004,0-0.384-0.013-0.857-0.013c-0.762,0-1.711,0.032-1.908,0.182
			c-0.54,0.411-1.45,1.435-1.477,3.68c-0.011,0.957-0.031,1.568-0.044,1.973c-0.023,0.732-0.025,0.762,0.088,0.867
			c0.073,0.068,0.213,0.073,0.327,0.077C6.215,15.999,6.239,16,6.26,16.002c0.087,0.007,0.18,0.01,0.301,0.01
			c0.051,0,0.102,0,0.152-0.001c0.075,0,0.149-0.001,0.224,0c0.237,0.003,0.254-0.049,0.256-0.058
			c0.075-0.483,0.189-1.068,0.799-1.444c0,0,0.238-0.171,0.608-0.185c0.288-0.011,0.601,0.125,0.794,0.315
			c0.073,0.072,0.242,0.247,0.244,0.249l0.002,0.002l0.041,0.002c0.114,0.003,0.203,0.007,0.27,0.007l0,0
			c0.096,0,0.121-0.007,0.129-0.017c0.003-0.004,0.003-0.009,0.003-0.013C10.076,14.813,10.067,9.296,10.067,9.24z M7.136,9.615
			h2.492v3.748H9.581V9.662H7.136V9.615z M9.451,12.465v0.224c0,0-0.009,0.045-0.05,0.05l-0.725,0.001
			c-0.045-0.01-0.05-0.066-0.05-0.066v-0.193c0.005-0.066,0.066-0.071,0.066-0.071h0.702C9.404,12.416,9.438,12.417,9.451,12.465z
			 M6.856,10.73c0.526-0.906,0.762-0.847,0.762-0.847c0.418-0.117,1.806-0.01,1.806-0.01v1.783l-2.959,0.688
			C6.465,12.345,6.525,11.301,6.856,10.73z M9.637,13.39c0,0-3.781,0.674-3.79,0.674v-0.04c0.006,0,3.787-0.672,3.787-0.672
			L9.637,13.39z"/>
		<path fill="#FFFFFF" d="M9.623,14.808H9.576v-1.34h0.047V14.808z M9.591,14.792h0.017v-1.308H9.591V14.792z"/>
		<path fill="#FFFFFF" d="M7.187,16.127c0.049-0.393,0.112-0.82,0.358-1.161c0.285-0.394,0.67-0.628,1.057-0.628
			c0.789,0,1.376,0.81,1.43,1.788v0.008l0,0"/>
		<path fill="#FFFFFF" d="M11.702,13.82h-1.481c-0.048,0-0.088-0.055-0.088-0.123v-2.754c0-0.069,0.04-0.124,0.088-0.124h0.544
			c0.049,0,0.088,0.054,0.088,0.122l0.938,2.754v0.002C11.791,13.766,11.751,13.82,11.702,13.82z"/>
		<path fill="#FFFFFF" d="M17.181,12.297l-0.002-0.011l-1.387-3.989h0.012l2.103,0.03l0.001,0.004l0.885,2.482L17.181,12.297z"/>
		<path fill="#FFFFFF" d="M13.883,13.564L12.5,9.572l3.277-1.278l1.382,3.994L13.883,13.564z"/>
		<path fill="#FFFFFF" d="M11.894,13.638l-0.002-0.007l-0.96-2.771l0.005-0.004l1.545-1.293l0.004,0.01l1.38,3.989h-0.01
			L11.894,13.638z"/>
		<path fill="#FFFFFF" d="M18.876,10.773L18.876,10.773c-0.048,0-0.091-0.032-0.109-0.08l-0.823-2.308
			c-0.022-0.064,0.007-0.137,0.067-0.16l0.588-0.236c0.014-0.006,0.028-0.007,0.041-0.007c0.05,0,0.095,0.032,0.111,0.08
			l0.824,2.308c0.023,0.064-0.009,0.136-0.068,0.161l-0.59,0.236C18.905,10.771,18.891,10.773,18.876,10.773z"/>
		<path fill="#FFFFFF" d="M18.333,13.729h-4.939l-0.001-0.016l0.533-0.021l3.327-1.296c0.032-0.029,0.76-0.704,1.215-1.125
			l0.012-0.012v2.314C18.479,13.659,18.415,13.729,18.333,13.729z"/>
		<path fill="#FFFFFF" d="M9.086,16.143c-0.101,0.156-0.276,0.261-0.474,0.261c-0.196,0-0.373-0.104-0.474-0.261H7.621l0.002,0.009
			c0.052,0.241,0.181,0.457,0.363,0.613c0.185,0.158,0.417,0.244,0.655,0.244c0.238,0,0.47-0.086,0.655-0.244
			c0.182-0.155,0.311-0.372,0.363-0.613l0.002-0.009H9.086z"/>
		<path fill="#FFFFFF" d="M14.324,16.151c-0.101,0.156-0.276,0.262-0.474,0.262c-0.196,0-0.372-0.105-0.473-0.262h-0.519
			l0.002,0.009c0.052,0.24,0.181,0.459,0.364,0.613c0.185,0.157,0.417,0.244,0.655,0.244c0.236,0,0.47-0.087,0.655-0.244
			c0.18-0.154,0.31-0.373,0.362-0.613l0.002-0.009H14.324z"/>
		<path fill="#FFFFFF" d="M17.208,16.143c-0.102,0.156-0.277,0.261-0.474,0.261c-0.197,0-0.372-0.104-0.474-0.261h-0.519
			l0.002,0.009c0.053,0.241,0.182,0.457,0.362,0.613c0.186,0.158,0.419,0.244,0.655,0.244c0.238,0,0.471-0.086,0.655-0.244
			c0.182-0.155,0.311-0.372,0.362-0.613l0.002-0.009H17.208z"/>
	</g>
</g>
</svg>
