<?xml version="1.0" encoding="utf-8"?>
<!-- Generator: Adobe Illustrator 16.0.0, SVG Export Plug-In . SVG Version: 6.00 Build 0)  -->
<!DOCTYPE svg PUBLIC "-//W3C//DTD SVG 1.1//EN" "http://www.w3.org/Graphics/SVG/1.1/DTD/svg11.dtd">
<svg version="1.1" id="图层_1" xmlns="http://www.w3.org/2000/svg" xmlns:xlink="http://www.w3.org/1999/xlink" x="0px" y="0px"
	 width="20px" height="20px" viewBox="2.672 2.5 20 20" enable-background="new 2.672 2.5 20 20" xml:space="preserve">
<g>
	<circle fill="#71B33E" cx="12.672" cy="12.5" r="10"/>
	<g>
		<g>
			<path fill="#FFFFFF" d="M17.509,13.956c1.002,0,1.357,1.088,1.357,1.088c0.692,0,0.934,0.058,0.934-0.351v-1.029H9.186
				c-0.107-0.02-0.27-0.088-0.28-0.346c-0.001-0.01-0.002-0.016-0.003-0.021v-0.09V9.639h-1.11c-0.19,0-0.438,0.127-0.55,0.282
				l-1.495,2.08c-0.111,0.154-0.203,0.439-0.203,0.632v2.063c0,0.193,0.156,0.35,0.346,0.35h1.218
				c0.185-0.568,0.715-0.98,1.341-0.98c0.625,0,1.155,0.412,1.34,0.98h6.287C16.075,15.044,16.159,13.956,17.509,13.956
				 M6.206,12.747V12.69c0-0.192,0.09-0.478,0.199-0.635l1.123-1.607c0.108-0.158,0.329-0.286,0.49-0.286
				c0.16,0,0.291,0.156,0.291,0.349v2.236c0,0.192-0.155,0.351-0.348,0.351H6.554C6.361,13.098,6.206,12.939,6.206,12.747
				L6.206,12.747z M7.344,15.465c0,0.614,0.495,1.114,1.104,1.114c0.607,0,1.104-0.5,1.104-1.114c0-0.613-0.496-1.113-1.104-1.113
				C7.839,14.352,7.344,14.852,7.344,15.465z M7.71,15.465c0-0.408,0.331-0.744,0.738-0.744c0.406,0,0.737,0.336,0.737,0.744
				c0,0.41-0.331,0.745-0.737,0.745C8.041,16.21,7.71,15.875,7.71,15.465z M9.728,13.346h9.388c0.263,0,0.477-0.152,0.477-0.337
				V8.757c0-0.185-0.214-0.336-0.477-0.336H9.728c-0.262,0-0.476,0.151-0.476,0.336v4.252C9.252,13.193,9.466,13.346,9.728,13.346z"
				/>
		</g>
		<g>
			<polygon fill="#FFFFFF" points="11.254,13.993 9.991,16.398 10.622,16.398 			"/>
		</g>
		<g>
			<polygon fill="#FFFFFF" points="11.117,16.398 11.254,13.993 11.527,16.398 			"/>
		</g>
		<g>
			<polygon fill="#FFFFFF" points="11.917,16.398 11.254,13.993 12.415,16.398 			"/>
		</g>
		<g>
			<polygon fill="#FFFFFF" points="13.29,13.993 12.026,16.398 12.657,16.398 			"/>
		</g>
		<g>
			<polygon fill="#FFFFFF" points="13.153,16.398 13.29,13.993 13.563,16.398 			"/>
		</g>
		<g>
			<polygon fill="#FFFFFF" points="13.952,16.398 13.29,13.993 14.45,16.398 			"/>
		</g>
		<g>
			<polygon fill="#FFFFFF" points="15.4,13.993 14.139,16.398 14.77,16.398 			"/>
		</g>
		<g>
			<polygon fill="#FFFFFF" points="15.266,16.398 15.4,13.993 15.675,16.398 			"/>
		</g>
		<g>
			<polygon fill="#FFFFFF" points="16.064,16.398 15.4,13.993 16.563,16.398 			"/>
		</g>
		<g>
			<path fill="#FFFFFF" d="M17.42,16.467c-0.633,0-1.146-0.515-1.146-1.146c0-0.631,0.515-1.146,1.146-1.146
				s1.146,0.516,1.146,1.146C18.566,15.952,18.052,16.467,17.42,16.467z M17.42,14.583c-0.406,0-0.736,0.33-0.736,0.737
				c0,0.406,0.33,0.736,0.736,0.736s0.737-0.33,0.737-0.736C18.157,14.913,17.826,14.583,17.42,14.583z"/>
		</g>
	</g>
</g>
</svg>
