<?xml version="1.0" encoding="utf-8"?>
<!-- Generator: Adobe Illustrator 16.0.0, SVG Export Plug-In . SVG Version: 6.00 Build 0)  -->
<!DOCTYPE svg PUBLIC "-//W3C//DTD SVG 1.1//EN" "http://www.w3.org/Graphics/SVG/1.1/DTD/svg11.dtd">
<svg version="1.1" id="图层_1" xmlns="http://www.w3.org/2000/svg" xmlns:xlink="http://www.w3.org/1999/xlink" x="0px" y="0px"
	 width="20px" height="20px" viewBox="2.672 2.5 20 20" enable-background="new 2.672 2.5 20 20" xml:space="preserve">
<g>
	<circle fill="#5C8AFF" cx="12.672" cy="12.5" r="10"/>
	<path fill="#FFFFFF" d="M5.731,12.627v2.268c0,0.211,0.172,0.381,0.383,0.381h1.349C7.667,14.65,8.256,14.2,8.949,14.2
		c0.693,0,1.281,0.45,1.484,1.075h2.253c0.198-0.635,0.791-1.102,1.492-1.102c0.702,0,1.299,0.467,1.493,1.102h0.978
		c0.211,0,0.385-0.17,0.385-0.381V13.76H9.766c-0.117-0.021-0.298-0.096-0.31-0.378c0-0.01-0.002-0.017-0.003-0.024v-0.099v-3.92
		H8.222c-0.212,0-0.485,0.14-0.608,0.31l-1.657,2.285C5.832,12.103,5.731,12.416,5.731,12.627z M6.465,12.752v-0.063
		c0-0.211,0.1-0.524,0.221-0.696l1.244-1.767c0.121-0.174,0.366-0.314,0.544-0.314c0.177,0,0.323,0.174,0.323,0.385v2.455
		c0,0.211-0.174,0.385-0.385,0.385H6.848C6.637,13.137,6.465,12.963,6.465,12.752L6.465,12.752z M12.919,15.738
		c0,0.695,0.565,1.262,1.261,1.262c0.694,0,1.262-0.566,1.262-1.262c0-0.693-0.566-1.262-1.262-1.262
		C13.484,14.479,12.919,15.045,12.919,15.738z M13.326,15.738c0-0.473,0.382-0.854,0.854-0.854c0.473,0,0.854,0.382,0.854,0.854
		s-0.384,0.854-0.854,0.854C13.708,16.593,13.326,16.211,13.326,15.738z M7.727,15.738c0,0.676,0.548,1.224,1.223,1.224
		c0.675,0,1.223-0.548,1.223-1.224s-0.548-1.223-1.223-1.223C8.275,14.516,7.727,15.063,7.727,15.738z M8.131,15.738
		c0-0.449,0.368-0.816,0.818-0.816c0.45,0,0.816,0.367,0.816,0.816s-0.366,0.818-0.816,0.818
		C8.499,16.557,8.131,16.188,8.131,15.738z M19.493,8.354C19.496,8.345,19.652,8,19.602,8h-9.393c-0.204,0-0.37,0.165-0.37,0.369
		v4.672c0,0.201,0.166,0.369,0.37,0.369h6.755"/>
</g>
</svg>
