<?xml version="1.0" encoding="utf-8"?>
<!-- Generator: Adobe Illustrator 16.0.0, SVG Export Plug-In . SVG Version: 6.00 Build 0)  -->
<!DOCTYPE svg PUBLIC "-//W3C//DTD SVG 1.1//EN" "http://www.w3.org/Graphics/SVG/1.1/DTD/svg11.dtd">
<svg version="1.1" id="图层_1" xmlns="http://www.w3.org/2000/svg" xmlns:xlink="http://www.w3.org/1999/xlink" x="0px" y="0px"
	 width="21px" height="21px" viewBox="89.5 89.5 21 21" enable-background="new 89.5 89.5 21 21" xml:space="preserve">
<g>
	<g>
		<path fill="#AACE39" d="M98.924,102.031l9.881-10.04l-0.797-0.797l-10.04,10.04L98.924,102.031z"/>
		<path fill="#AACE39" d="M98.934,102.235l-1.188-0.991l10.263-10.262l1.008,1.008L98.934,102.235z M98.19,101.225l0.724,0.603
			l9.68-9.835l-0.586-0.586L98.19,101.225z"/>
	</g>
	<g>
		<path fill="#AACE39" d="M97.49,101.712L97.49,101.712l-0.159,0.956c0,0.16,0,0.16,0.159,0.16l0.956-0.319l0,0L97.49,101.712z"/>
		<path fill="#AACE39" d="M97.515,102.979H97.49c-0.243,0-0.31-0.067-0.31-0.311l0.204-1.239l1.364,1.137L97.515,102.979z
			 M97.595,101.995l-0.112,0.678l0.661-0.221L97.595,101.995z"/>
	</g>
	<g>
		<path fill="#AACE39" d="M109.761,90.238L109.761,90.238c-0.318-0.319-0.638-0.319-0.956,0l-0.479,0.478l0.957,0.956l0.478-0.478
			C110.08,90.876,110.08,90.397,109.761,90.238z"/>
		<path fill="#AACE39" d="M109.283,91.884l-1.169-1.168l0.584-0.584c0.369-0.368,0.781-0.377,1.152-0.016
			c0.157,0.087,0.26,0.237,0.291,0.426c0.041,0.257-0.063,0.548-0.275,0.759L109.283,91.884z M108.538,90.716l0.745,0.744
			l0.371-0.372c0.145-0.144,0.218-0.334,0.19-0.498c-0.011-0.07-0.047-0.165-0.151-0.218l-0.039-0.028
			c-0.26-0.259-0.487-0.257-0.743,0L108.538,90.716z"/>
	</g>
	<g>
		<path fill="#AACE39" d="M108.326,93.903v14.024c0,0.637-0.478,1.274-1.274,1.274h-15.14c-0.637,0-1.274-0.478-1.274-1.274v-15.14
			c0-0.638,0.478-1.275,1.274-1.275h14.024l0.956-0.637H91.594c-0.956,0-1.594,0.637-1.594,1.593v15.937
			c0,0.956,0.638,1.594,1.594,1.594h15.937c0.956,0,1.593-0.638,1.593-1.594V93.106L108.326,93.903z"/>
		<path fill="#AACE39" d="M107.53,110.149H91.594c-1.043,0-1.744-0.701-1.744-1.744V92.469c0-1.042,0.701-1.743,1.744-1.743h15.795
			l-1.407,0.938H91.912c-0.73,0-1.124,0.579-1.124,1.125v15.14c0,0.73,0.579,1.124,1.124,1.124h15.14
			c0.73,0,1.124-0.579,1.124-1.124V93.841l1.098-1.097v15.661C109.273,109.448,108.572,110.149,107.53,110.149z M91.594,91.026
			c-0.877,0-1.443,0.566-1.443,1.442v15.937c0,0.877,0.566,1.443,1.443,1.443h15.937c0.876,0,1.442-0.566,1.442-1.443V93.469
			l-0.496,0.497v13.962c0,0.7-0.533,1.425-1.425,1.425h-15.14c-0.7,0-1.425-0.533-1.425-1.425v-15.14c0-0.7,0.533-1.426,1.425-1.426
			h13.979l0.505-0.336H91.594z"/>
	</g>
</g>
</svg>
