<?xml version="1.0" encoding="utf-8"?>
<!-- Generator: Adobe Illustrator 16.0.0, SVG Export Plug-In . SVG Version: 6.00 Build 0)  -->
<!DOCTYPE svg PUBLIC "-//W3C//DTD SVG 1.1//EN" "http://www.w3.org/Graphics/SVG/1.1/DTD/svg11.dtd">
<svg version="1.1" id="图层_1" xmlns="http://www.w3.org/2000/svg" xmlns:xlink="http://www.w3.org/1999/xlink" x="0px" y="0px"
	 width="20px" height="20px" viewBox="2.672 2.5 20 20" enable-background="new 2.672 2.5 20 20" xml:space="preserve">
<g>
	<circle fill="#ABD111" cx="12.672" cy="12.5" r="10"/>
	<path fill="#FFFFFF" d="M5.216,15.031c-0.013,1.047,0.824,1.904,1.87,1.919c1.044,0.014,1.904-0.822,1.917-1.868
		c0-0.007,0-0.016,0-0.022c0.24,0.126,0.428,0.083,0.541,0.084c0,0-0.331-1.481-0.856-2.16l0.237,0.006l1.339,2.516
		c0.086,0.19,0.275,0.323,0.499,0.327l3.716,0.048c0.271,0.003,0.498-0.184,0.551-0.437c0.027,0,0.054,0.002,0.081,0.002
		c0,0,0.086,0.001,0.234,0.003c0.021,1.016,0.843,1.841,1.867,1.853c1.031,0.015,1.881-0.799,1.918-1.824
		c0.381-0.054,0.689-0.263,0.868-0.577c0.279-0.485,0.05-0.888-0.135-1.358c-0.194-0.497-0.616-1.011-1.153-1.337
		c0.144-0.142,0.234-0.327,0.236-0.532c0.006-0.448-0.406-0.817-0.92-0.824l-3.394-0.044c-0.517-0.005-0.938,0.352-0.944,0.8
		c-0.003,0.268,0.145,0.507,0.374,0.659c-0.231,0.221-0.375,0.515-0.379,0.838l-0.015,1.053c-0.002,0.219,0.059,0.427,0.168,0.609
		l-0.58-0.009c-0.071-0.218-0.275-0.376-0.519-0.382l-1.499-0.02c-0.132-0.001-0.253,0.045-0.351,0.121l-0.313-0.59
		c0.23-0.089,0.358-0.341,0.289-0.584l-0.462-1.627c-0.039-0.135-0.131-0.24-0.246-0.299l0.827-1.79
		c0.031-0.066,0.046-0.136,0.046-0.205l0.57,0.313c0.128,0.07,0.287,0.023,0.357-0.104c0.071-0.127,0.024-0.288-0.103-0.358
		l-0.58-0.318c0.006-0.03,0.009-0.061,0.01-0.092c0.003-0.268-0.212-0.488-0.479-0.492c-0.188-0.002-0.351,0.103-0.434,0.257
		C10.368,8.1,9.98,7.706,9.495,7.7c-0.02,0-0.039,0-0.059,0.001C9.427,7.7,9.419,7.698,9.411,7.698
		c-0.064,0-0.118,0.053-0.119,0.117l-0.02,1.539c0,0.066,0.051,0.12,0.116,0.12c0.009,0,0.016,0,0.023-0.002
		c0.02,0.001,0.04,0.003,0.061,0.003c0.12,0.002,0.232-0.021,0.337-0.062l-1.037,2.241l-0.397-0.011
		c-0.322-0.008-0.59,0.282-0.601,0.65c-0.002,0.06,0.004,0.117,0.016,0.172c-0.609-0.162-1.417-0.148-2.074,0.353
		c-0.877,0.669-0.199,0.891-0.041,0.943c0.014,0.004,0.027,0.008,0.042,0.013C5.412,14.105,5.223,14.545,5.216,15.031z
		 M16.615,15.466c0.418,0.005,0.858,0.01,1.241,0.017c-0.036,0.313-0.306,0.555-0.627,0.551
		C16.906,16.029,16.645,15.78,16.615,15.466z M6.485,15.048c0.004-0.345,0.288-0.62,0.632-0.613c0.344,0.004,0.622,0.285,0.616,0.63
		c-0.004,0.346-0.286,0.621-0.632,0.617C6.757,15.678,6.481,15.394,6.485,15.048z"/>
</g>
</svg>
