<?xml version="1.0" encoding="utf-8"?>
<!-- Generator: Adobe Illustrator 16.0.0, SVG Export Plug-In . SVG Version: 6.00 Build 0)  -->
<!DOCTYPE svg PUBLIC "-//W3C//DTD SVG 1.1//EN" "http://www.w3.org/Graphics/SVG/1.1/DTD/svg11.dtd">
<svg version="1.1" id="图层_1" xmlns="http://www.w3.org/2000/svg" xmlns:xlink="http://www.w3.org/1999/xlink" x="0px" y="0px"
	 width="20px" height="20px" viewBox="2.672 2.5 20 20" enable-background="new 2.672 2.5 20 20" xml:space="preserve">
<g>
	<circle fill="#6DDFFF" cx="12.672" cy="12.5" r="10"/>
	<g>
		<path fill="#FFFFFF" d="M18.064,8.276c-0.007-0.03-0.021-0.058-0.032-0.087c-3.779,0-7.558,0-11.336,0
			c-0.21,0.038-0.39,0.133-0.536,0.289C5.993,8.655,5.88,8.863,5.792,9.086C5.775,9.131,5.758,9.175,5.741,9.22
			c0,1.919,0,3.837,0,5.756c0.071,0,0.143-0.002,0.214,0.001c0.037,0.002,0.055-0.012,0.068-0.046
			c0.089-0.212,0.206-0.406,0.353-0.583c0.601-0.726,1.825-1.025,2.738-0.142c0.221,0.213,0.403,0.453,0.546,0.724
			c0.018,0.034,0.037,0.049,0.076,0.047c0.067-0.004,0.147,0.021,0.197-0.009c0.049-0.028,0.067-0.108,0.099-0.167
			c0.251-0.466,0.6-0.826,1.102-1.015c0.653-0.245,1.246-0.122,1.78,0.315c0.282,0.232,0.507,0.515,0.691,0.83
			c0.011,0.02,0.037,0.042,0.057,0.042c0.423,0.003,0.847,0.002,1.279,0.002c0-0.028,0-0.055,0-0.08c0-2.042,0-4.084,0-6.126
			c0-0.186,0.131-0.317,0.318-0.317c0.89,0,1.78,0,2.67,0C18.04,8.452,18.091,8.387,18.064,8.276z"/>
		<path fill="#FFFFFF" d="M19.417,11.319c-0.324-0.716-0.715-1.396-1.106-2.076c-0.021-0.035-0.045-0.037-0.077-0.037
			c-0.932,0-1.863,0-2.796,0c-0.018,0-0.036,0.002-0.053,0.003c0,1.924,0,3.843,0,5.764c0.181,0,0.356,0,0.535,0
			c0.017-0.053,0.033-0.104,0.051-0.155c0.336-1.017,1.52-1.506,2.484-0.859c0.317,0.213,0.565,0.49,0.769,0.81
			c0.043,0.068,0.07,0.165,0.132,0.198c0.065,0.034,0.163,0.008,0.247,0.008c0-1.06,0-2.12,0-3.18
			C19.541,11.637,19.487,11.475,19.417,11.319z M15.646,11.301c0-0.522,0-1.041,0-1.568c0.024,0,0.046,0,0.068,0
			c0.749,0,1.499,0,2.249-0.001c0.048,0,0.074,0.015,0.099,0.056c0.241,0.387,0.479,0.777,0.656,1.199
			c0.041,0.1,0.069,0.204,0.106,0.315C17.757,11.301,16.705,11.301,15.646,11.301z"/>
		<path fill="#FFFFFF" d="M7.646,14.224c-0.601,0.096-1.061,0.599-1.099,1.202c-0.039,0.611,0.355,1.169,0.946,1.335
			c0.076,0.021,0.155,0.033,0.232,0.05c0.084,0,0.168,0,0.252,0c0.012-0.004,0.022-0.01,0.034-0.011
			c0.605-0.079,1.074-0.563,1.132-1.17C9.227,14.792,8.479,14.092,7.646,14.224z"/>
		<path fill="#FFFFFF" d="M17.392,14.225c-0.609,0.103-1.074,0.619-1.095,1.218c-0.021,0.647,0.388,1.188,1.012,1.335
			c0.052,0.013,0.105,0.022,0.158,0.033c0.084,0,0.167,0,0.251,0c0.014-0.004,0.028-0.009,0.042-0.011
			c0.715-0.093,1.21-0.729,1.129-1.449C18.808,14.629,18.109,14.104,17.392,14.225z"/>
		<path fill="#FFFFFF" d="M11.588,14.224c-0.594,0.096-1.058,0.602-1.098,1.177c-0.047,0.684,0.406,1.217,0.951,1.361
			c0.072,0.02,0.146,0.033,0.219,0.049c0.084,0,0.168,0,0.252,0c0.012-0.003,0.023-0.009,0.035-0.011
			c0.711-0.096,1.203-0.711,1.136-1.42C13.013,14.643,12.319,14.106,11.588,14.224z"/>
	</g>
</g>
</svg>
