<?xml version="1.0" encoding="utf-8"?>
<!-- Generator: Adobe Illustrator 16.0.0, SVG Export Plug-In . SVG Version: 6.00 Build 0)  -->
<!DOCTYPE svg PUBLIC "-//W3C//DTD SVG 1.1//EN" "http://www.w3.org/Graphics/SVG/1.1/DTD/svg11.dtd">
<svg version="1.1" id="图层_1" xmlns="http://www.w3.org/2000/svg" xmlns:xlink="http://www.w3.org/1999/xlink" x="0px" y="0px"
	 width="20px" height="20px" viewBox="0 0 20 20" enable-background="new 0 0 20 20" xml:space="preserve">
<g>
	<circle fill="#FF5C77" cx="10" cy="10" r="10"/>
	<g>
		<g>
			<path fill="#FFFFFF" d="M14.463,11.344c0.926,0,1.253,1.004,1.253,1.004c0.64,0,0.862,0.053,0.862-0.322v-0.95H6.782
				c-0.099-0.019-0.249-0.081-0.259-0.318c0-0.01-0.001-0.016-0.003-0.021v-0.084V7.359H5.496c-0.175,0-0.404,0.118-0.508,0.261
				l-1.38,1.92c-0.102,0.141-0.187,0.404-0.187,0.582v1.901c0,0.18,0.145,0.324,0.319,0.324h1.124
				c0.172-0.523,0.66-0.904,1.238-0.904c0.577,0,1.066,0.38,1.237,0.904h5.802C13.141,12.348,13.217,11.344,14.463,11.344
				 M4.031,10.229v-0.053c0-0.177,0.083-0.441,0.185-0.587l1.035-1.481c0.101-0.146,0.304-0.264,0.453-0.264
				c0.146,0,0.269,0.143,0.269,0.32v2.064c0,0.177-0.145,0.323-0.321,0.323H4.354C4.175,10.552,4.031,10.405,4.031,10.229
				L4.031,10.229z M5.082,12.736c0,0.565,0.456,1.027,1.019,1.027c0.56,0,1.019-0.462,1.019-1.027c0-0.566-0.457-1.028-1.019-1.028
				C5.538,11.708,5.082,12.17,5.082,12.736z M5.421,12.736c0-0.377,0.304-0.688,0.681-0.688c0.375,0,0.681,0.311,0.681,0.688
				c0,0.378-0.307,0.688-0.681,0.688C5.725,13.424,5.421,13.114,5.421,12.736z M7.282,10.779h8.663c0.244,0,0.44-0.139,0.44-0.311
				V6.546c0-0.17-0.196-0.31-0.44-0.31H7.282c-0.242,0-0.439,0.14-0.439,0.31v3.924C6.843,10.641,7.04,10.779,7.282,10.779z"/>
		</g>
		<g>
			<polygon fill="#FFFFFF" points="8.689,11.378 7.524,13.6 8.106,13.6 			"/>
		</g>
		<g>
			<polygon fill="#FFFFFF" points="8.564,13.6 8.689,11.378 8.942,13.6 			"/>
		</g>
		<g>
			<polygon fill="#FFFFFF" points="9.302,13.6 8.689,11.378 9.762,13.6 			"/>
		</g>
		<g>
			<polygon fill="#FFFFFF" points="10.568,11.378 9.402,13.6 9.985,13.6 			"/>
		</g>
		<g>
			<polygon fill="#FFFFFF" points="10.443,13.6 10.568,11.378 10.82,13.6 			"/>
		</g>
		<g>
			<polygon fill="#FFFFFF" points="11.182,13.6 10.568,11.378 11.641,13.6 			"/>
		</g>
		<g>
			<polygon fill="#FFFFFF" points="12.518,11.378 11.354,13.6 11.936,13.6 			"/>
		</g>
		<g>
			<polygon fill="#FFFFFF" points="12.393,13.6 12.518,11.378 12.771,13.6 			"/>
		</g>
		<g>
			<polygon fill="#FFFFFF" points="13.13,13.6 12.518,11.378 13.589,13.6 			"/>
		</g>
		<g>
			<path fill="#FFFFFF" d="M14.381,13.66c-0.584,0-1.059-0.475-1.059-1.057s0.476-1.06,1.059-1.06s1.059,0.478,1.059,1.06
				S14.964,13.66,14.381,13.66z M14.381,11.922c-0.376,0-0.68,0.307-0.68,0.682s0.304,0.68,0.68,0.68c0.375,0,0.68-0.305,0.68-0.68
				S14.756,11.922,14.381,11.922z"/>
		</g>
	</g>
</g>
</svg>
