<?xml version="1.0" encoding="utf-8"?>
<!-- Generator: Adobe Illustrator 16.0.0, SVG Export Plug-In . SVG Version: 6.00 Build 0)  -->
<!DOCTYPE svg PUBLIC "-//W3C//DTD SVG 1.1//EN" "http://www.w3.org/Graphics/SVG/1.1/DTD/svg11.dtd">
<svg version="1.1" id="图层_1" xmlns="http://www.w3.org/2000/svg" xmlns:xlink="http://www.w3.org/1999/xlink" x="0px" y="0px"
	 width="20px" height="20px" viewBox="0 0 20 20" enable-background="new 0 0 20 20" xml:space="preserve">
<g>
	<circle fill="#DE3E33" cx="10" cy="10" r="10"/>
	<g>
		<g>
			<path fill="#FFFFFF" d="M16.788,11.511h-2.665c0.176,0.236,0.281,0.525,0.281,0.845h1.313l1.069-0.267L16.788,11.511
				L16.788,11.511z M11.954,12.354c0,0.58,0.464,1.041,1.037,1.041s1.038-0.463,1.038-1.041c0-0.567-0.465-1.035-1.038-1.035
				C12.418,11.32,11.954,11.786,11.954,12.354z M12.426,12.354c0-0.307,0.256-0.56,0.567-0.56s0.567,0.253,0.567,0.56
				c0,0.318-0.256,0.571-0.567,0.571C12.682,12.926,12.426,12.672,12.426,12.354z M3.209,10v2.354H4.34
				c0-0.028,0.006-0.064,0.006-0.093c0.014-0.198,0.067-0.381,0.153-0.543c0.233-0.457,0.707-0.771,1.257-0.771
				c0.781,0,1.416,0.631,1.416,1.406h0.997c-0.002,0.021,0.52,0.021,0.523,0h2.89c0-0.317,0.105-0.607,0.285-0.844H8.872
				c0.061-0.234,0.125-0.451,0.178-0.627c0.298,0.186,0.646,0.303,1.02,0.303h4.788c1.063,0,1.935-0.874,1.935-1.937v-0.71
				c0-1.065-0.872-1.935-1.935-1.935h-4.79c-1.062,0-1.932,0.869-1.932,1.935V9.25c0,0.487,0.188,0.928,0.485,1.266
				c-0.075,0.225-0.187,0.586-0.287,0.995H7.647V6.604H5.283V7.17L4.529,9.436L3.209,10z M5.095,9.436l0.563-1.698H6.98v1.698H5.095
				z M4.716,12.354c0,0.58,0.464,1.041,1.036,1.041c0.575,0,1.041-0.463,1.041-1.041c0-0.567-0.467-1.035-1.041-1.035
				C5.182,11.32,4.716,11.786,4.716,12.354z M5.188,12.354c0-0.307,0.254-0.56,0.566-0.56s0.567,0.253,0.567,0.56
				c0,0.318-0.254,0.571-0.567,0.571C5.441,12.926,5.188,12.672,5.188,12.354z"/>
		</g>
	</g>
</g>
</svg>
