<?xml version="1.0" encoding="utf-8"?>
<!-- Generator: Adobe Illustrator 16.0.0, SVG Export Plug-In . SVG Version: 6.00 Build 0)  -->
<!DOCTYPE svg PUBLIC "-//W3C//DTD SVG 1.1//EN" "http://www.w3.org/Graphics/SVG/1.1/DTD/svg11.dtd">
<svg version="1.1" id="图层_1" xmlns="http://www.w3.org/2000/svg" xmlns:xlink="http://www.w3.org/1999/xlink" x="0px" y="0px"
	 width="20px" height="20px" viewBox="0 0 20 20" enable-background="new 0 0 20 20" xml:space="preserve">
<g>
	<circle fill="#ABD111" cx="10" cy="10" r="10"/>
	<path fill="#FFFFFF" d="M3.329,10.123v2.179c0,0.203,0.165,0.366,0.368,0.366h1.296c0.197-0.602,0.762-1.034,1.429-1.034
		c0.666,0,1.231,0.435,1.427,1.034h2.166c0.19-0.609,0.76-1.059,1.433-1.059c0.676,0,1.249,0.447,1.436,1.059h0.939
		c0.202,0,0.368-0.163,0.368-0.366V11.21H7.208c-0.113-0.019-0.287-0.091-0.299-0.362c0-0.01-0.001-0.016-0.002-0.022V10.73v-3.77
		H5.723c-0.204,0-0.466,0.135-0.584,0.298L3.545,9.456C3.426,9.618,3.329,9.919,3.329,10.123z M4.034,10.242v-0.061
		c0-0.203,0.097-0.503,0.212-0.668l1.196-1.699c0.116-0.166,0.352-0.301,0.523-0.301c0.169,0,0.31,0.166,0.31,0.37v2.359
		c0,0.204-0.167,0.369-0.37,0.369H4.402C4.199,10.611,4.034,10.445,4.034,10.242L4.034,10.242z M10.239,13.113
		c0,0.668,0.543,1.212,1.21,1.212c0.668,0,1.213-0.546,1.213-1.212c0-0.668-0.545-1.215-1.213-1.215
		C10.782,11.9,10.239,12.447,10.239,13.113z M10.628,13.113c0-0.455,0.368-0.822,0.821-0.822c0.455,0,0.82,0.367,0.82,0.822
		c0,0.453-0.367,0.82-0.82,0.82C10.996,13.936,10.628,13.566,10.628,13.113z M5.248,13.113c0,0.648,0.526,1.176,1.175,1.176
		c0.648,0,1.175-0.525,1.175-1.176s-0.526-1.176-1.175-1.176C5.773,11.938,5.248,12.463,5.248,13.113z M5.635,13.113
		c0-0.434,0.354-0.785,0.787-0.785c0.433,0,0.784,0.354,0.784,0.785c0,0.431-0.352,0.785-0.784,0.785
		C5.989,13.9,5.635,13.545,5.635,13.113z M16.557,6.015c0.004-0.009,0.153-0.34,0.105-0.34H7.633c-0.196,0-0.355,0.158-0.355,0.355
		v4.492c0,0.192,0.16,0.354,0.355,0.354h6.493"/>
</g>
</svg>
