<?xml version="1.0" encoding="utf-8"?>
<!-- Generator: Adobe Illustrator 16.0.0, SVG Export Plug-In . SVG Version: 6.00 Build 0)  -->
<!DOCTYPE svg PUBLIC "-//W3C//DTD SVG 1.1//EN" "http://www.w3.org/Graphics/SVG/1.1/DTD/svg11.dtd">
<svg version="1.1" id="图层_1" xmlns="http://www.w3.org/2000/svg" xmlns:xlink="http://www.w3.org/1999/xlink" x="0px" y="0px"
	 width="20px" height="20px" viewBox="0 0 20 20" enable-background="new 0 0 20 20" xml:space="preserve">
<g>
	<circle fill="#71B33E" cx="10" cy="10" r="10"/>
	<path fill="#FFFFFF" d="M14.956,13.221c0.546,0,0.99-0.441,0.99-0.989V6.036c0-0.547-0.441-0.992-0.99-0.992H9.504
		c-0.547,0-0.992,0.444-0.992,0.992v0.992H7.007c-0.333,0-0.627,0.132-0.839,0.341L4.913,8.628C4.688,8.851,4.549,9.162,4.549,9.504
		v2.492c-0.283,0.056-0.496,0.305-0.496,0.605c0,0.341,0.279,0.619,0.62,0.619h0.873c0.061,0.97,0.869,1.735,1.852,1.735
		s1.792-0.766,1.853-1.735h1.742c0.066,0.97,0.873,1.735,1.856,1.735s1.789-0.766,1.853-1.735H14.956z M8.018,13.097
		c0,0.342-0.278,0.621-0.62,0.621c-0.341,0-0.619-0.279-0.619-0.621s0.278-0.618,0.619-0.618C7.74,12.479,8.018,12.755,8.018,13.097
		z M13.47,13.097c0,0.342-0.278,0.621-0.62,0.621s-0.62-0.279-0.62-0.621s0.278-0.618,0.62-0.618S13.47,12.755,13.47,13.097z
		 M5.788,10.247V9.62c0-0.245,0.098-0.364,0.284-0.548l0.533-0.532c0.169-0.17,0.297-0.275,0.542-0.275h1.367v1.983H5.788
		L5.788,10.247z"/>
</g>
</svg>
