<?xml version="1.0" encoding="utf-8"?>
<!-- Generator: Adobe Illustrator 16.0.0, SVG Export Plug-In . SVG Version: 6.00 Build 0)  -->
<!DOCTYPE svg PUBLIC "-//W3C//DTD SVG 1.1//EN" "http://www.w3.org/Graphics/SVG/1.1/DTD/svg11.dtd">
<svg version="1.1" id="图层_1" xmlns="http://www.w3.org/2000/svg" xmlns:xlink="http://www.w3.org/1999/xlink" x="0px" y="0px"
	 width="20px" height="20px" viewBox="0 0 20 20" enable-background="new 0 0 20 20" xml:space="preserve">
<g>
	<circle fill="#FF8C5C" cx="10" cy="10" r="10"/>
	<g>
		<path fill="#FFFFFF" d="M16.906,10.377c-0.559-0.836-1.116-1.672-1.674-2.508c-0.021-0.034-0.045-0.045-0.084-0.045
			c-0.83,0.001-1.658,0.001-2.486,0.001c-0.02,0-0.039,0-0.057,0c0,1.305,0,2.603,0,3.903c0.338,0,0.674-0.002,1.01,0
			c0.035,0,0.051-0.011,0.064-0.045c0.162-0.416,0.553-0.685,0.991-0.685c0.44,0,0.832,0.271,0.992,0.687
			c0.014,0.035,0.03,0.043,0.065,0.043c0.402-0.002,0.806,0,1.207,0c0-0.437,0-0.871,0-1.305
			C16.927,10.408,16.916,10.393,16.906,10.377z M13.037,9.339c0-0.434,0-0.862,0-1.298c0.018,0,0.033,0,0.051,0
			c0.544,0,1.088,0,1.633,0c0.03,0,0.053,0.005,0.07,0.034c0.273,0.411,0.547,0.821,0.818,1.231c0.009,0.01,0.013,0.02,0.021,0.034
			C14.764,9.339,13.902,9.339,13.037,9.339z"/>
		<path fill="#FFFFFF" d="M3.063,10.658c0.071,0,0.14,0,0.211,0c0,0.357,0,0.712,0,1.068c0.118,0,0.232-0.002,0.346,0.002
			c0.044,0,0.063-0.012,0.08-0.054c0.185-0.474,0.681-0.753,1.179-0.657c0.387,0.074,0.653,0.301,0.803,0.666
			c0.012,0.028,0.022,0.045,0.06,0.045c0.091-0.004,0.182-0.004,0.272,0c0.039,0,0.057-0.011,0.072-0.049
			c0.274-0.709,1.182-0.91,1.73-0.382c0.125,0.12,0.212,0.265,0.271,0.429c0.018,0,0.035,0,0.052,0c0.305,0,0.609,0,0.914,0.002
			c0.041,0,0.058-0.013,0.072-0.051c0.158-0.41,0.552-0.68,0.991-0.679c0.438,0,0.831,0.271,0.989,0.681
			c0.014,0.034,0.029,0.049,0.068,0.049c0.387-0.002,0.773-0.002,1.161-0.002c0.017,0,0.033,0,0.052,0c0-1.517,0-3.028,0-4.545
			c-3.109,0-6.216,0-9.323,0C3.063,8.341,3.063,9.497,3.063,10.658z"/>
		<path fill="#FFFFFF" d="M10.113,11.303c-0.419,0-0.758,0.338-0.758,0.758c0,0.418,0.339,0.758,0.758,0.758
			c0.419,0,0.76-0.336,0.761-0.754C10.875,11.643,10.534,11.302,10.113,11.303z"/>
		<path fill="#FFFFFF" d="M4.687,11.303c-0.42,0-0.76,0.342-0.758,0.764c0.001,0.416,0.344,0.754,0.763,0.752
			c0.418,0,0.756-0.34,0.755-0.76C5.445,11.641,5.106,11.302,4.687,11.303z"/>
		<path fill="#FFFFFF" d="M7.074,11.303c-0.42,0-0.762,0.344-0.76,0.762c0.003,0.418,0.344,0.754,0.763,0.754
			c0.418,0,0.758-0.342,0.756-0.76C7.833,11.641,7.493,11.302,7.074,11.303z"/>
		<path fill="#FFFFFF" d="M14.67,11.303c-0.419,0-0.758,0.34-0.757,0.76c0,0.42,0.339,0.756,0.758,0.756s0.761-0.338,0.761-0.756
			C15.432,11.643,15.09,11.302,14.67,11.303z"/>
	</g>
</g>
</svg>
