<?xml version="1.0" encoding="utf-8"?>
<!-- Generator: Adobe Illustrator 16.0.0, SVG Export Plug-In . SVG Version: 6.00 Build 0)  -->
<!DOCTYPE svg PUBLIC "-//W3C//DTD SVG 1.1//EN" "http://www.w3.org/Graphics/SVG/1.1/DTD/svg11.dtd">
<svg version="1.1" id="图层_1" xmlns="http://www.w3.org/2000/svg" xmlns:xlink="http://www.w3.org/1999/xlink" x="0px" y="0px"
	 width="36px" height="36px" viewBox="0 0 36 36" enable-background="new 0 0 36 36" xml:space="preserve">
<g>
	<circle fill="#FFFFFF" cx="18" cy="18" r="18"/>
	<path fill="#667D26" d="M17.255,23.802C17.257,23.802,17.252,23.802,17.255,23.802l-4.997-4.041l7.032-8.682l4.998,4.042
		L17.255,23.802z M14.335,24.917c-0.004,0.008-0.019,0.01-0.028,0l-2.581-2.094l1.081-1.235l2.597,2.104L14.335,24.917z
		 M24.234,20.112h-2.601l3.491-4.313c0.376-0.465,0.305-1.144-0.158-1.519l-4.994-4.042c-0.462-0.373-1.143-0.304-1.517,0.158
		l-7.033,8.686c-0.376,0.461-0.305,1.14,0.158,1.517l0.386,0.313l-1.067,1.217c-0.398,0.459-0.343,1.142,0.132,1.521l2.598,2.104
		c0.457,0.371,1.131,0.317,1.521-0.129l1.093-1.252l0.333,0.269c0.463,0.371,1.144,0.302,1.517-0.16l2.666-3.29h3.476v2.292h1.078
		v-5.658h-1.078V20.112z"/>
</g>
</svg>
