<?xml version="1.0" encoding="utf-8"?>
<!-- Generator: Adobe Illustrator 16.0.0, SVG Export Plug-In . SVG Version: 6.00 Build 0)  -->
<!DOCTYPE svg PUBLIC "-//W3C//DTD SVG 1.1//EN" "http://www.w3.org/Graphics/SVG/1.1/DTD/svg11.dtd">
<svg version="1.1" id="图层_1" xmlns="http://www.w3.org/2000/svg" xmlns:xlink="http://www.w3.org/1999/xlink" x="0px" y="0px"
	 width="50px" height="50px" viewBox="0 0 50 50" enable-background="new 0 0 50 50" xml:space="preserve">
<circle fill="#FFFFFF" cx="25" cy="25" r="25"/>
<path fill="#667D26" d="M17.943,14.932h19.314c0.41,0,0.742,0.348,0.742,0.775s-0.332,0.773-0.742,0.773H17.943
	c-0.41,0-0.743-0.346-0.743-0.773S17.533,14.932,17.943,14.932z M17.943,24.227h19.314C37.667,24.227,38,24.572,38,25
	s-0.332,0.775-0.742,0.775H17.943c-0.41,0-0.743-0.348-0.743-0.775S17.533,24.227,17.943,24.227z M17.943,33.52h19.314
	c0.41,0,0.742,0.346,0.742,0.773s-0.332,0.775-0.742,0.775H17.943c-0.41,0-0.743-0.348-0.743-0.775S17.533,33.52,17.943,33.52z
	 M13.485,32.744c0.821,0,1.486,0.693,1.486,1.549s-0.665,1.549-1.486,1.549c-0.82,0-1.485-0.693-1.485-1.549
	S12.665,32.744,13.485,32.744z M13.485,23.451c0.821,0,1.486,0.693,1.486,1.549s-0.665,1.549-1.486,1.549
	C12.665,26.549,12,25.855,12,25S12.665,23.451,13.485,23.451z M13.485,14.158c0.821,0,1.486,0.693,1.486,1.549
	s-0.665,1.549-1.486,1.549c-0.82,0-1.485-0.693-1.485-1.549S12.665,14.158,13.485,14.158z"/>
</svg>
