<?xml version="1.0" encoding="utf-8"?>
<!-- Generator: Adobe Illustrator 16.0.0, SVG Export Plug-In . SVG Version: 6.00 Build 0)  -->
<!DOCTYPE svg PUBLIC "-//W3C//DTD SVG 1.1//EN" "http://www.w3.org/Graphics/SVG/1.1/DTD/svg11.dtd">
<svg version="1.1" id="图层_1" xmlns="http://www.w3.org/2000/svg" xmlns:xlink="http://www.w3.org/1999/xlink" x="0px" y="0px"
	 width="42px" height="38px" viewBox="0 0 42 38" enable-background="new 0 0 42 38" xml:space="preserve">
<g>
	<path fill="#667D26" d="M15.236,19.779c0-0.689-0.563-1.251-1.254-1.251c-3.29,0-5.967-2.87-5.967-6.396
		c0-3.527,2.677-6.397,5.967-6.397c0.691,0,1.254-0.562,1.254-1.253c0-0.69-0.563-1.252-1.254-1.252
		c-4.671,0-8.471,3.994-8.471,8.904c0,2.929,1.402,5.689,3.694,7.34C4.094,21.555,0.7,26.727,0.7,32.532
		c0,0.69,0.561,1.253,1.25,1.253c0.692,0,1.254-0.561,1.255-1.253c0-6.335,4.835-11.489,10.78-11.489
		C14.671,21.036,15.232,20.473,15.236,19.779z"/>
	<path fill="#667D26" d="M25.01,1.197c-5.666,0-10.276,4.609-10.276,10.275c0,3.563,1.841,6.845,4.847,8.719
		c-6.523,2.301-10.859,8.391-10.859,15.361c0,0.689,0.561,1.252,1.249,1.252c0.692,0,1.255-0.563,1.254-1.252
		c0-7.599,6.153-13.785,13.691-13.791c0.141,0.012,0.305-0.001,0.336-0.021c5.533-0.13,10.033-4.737,10.033-10.269
		C35.285,5.806,30.676,1.197,25.01,1.197z M25.011,3.701c4.285,0,7.771,3.486,7.771,7.771c0,4.285-3.486,7.77-7.771,7.77
		c-4.285,0-7.771-3.485-7.771-7.77C17.239,7.187,20.726,3.701,25.011,3.701z"/>
	<path fill="#667D26" d="M36.546,24.051c-0.472-0.473-1.294-0.477-1.771-0.003c-0.486,0.487-0.488,1.281-0.004,1.771
		c2.595,2.602,4.024,6.059,4.024,9.734c0,0.689,0.562,1.252,1.25,1.252c0.69,0,1.254-0.563,1.254-1.25
		C41.3,31.208,39.611,27.122,36.546,24.051z"/>
</g>
</svg>
