<?xml version="1.0" encoding="utf-8"?>
<!-- Generator: Adobe Illustrator 16.0.0, SVG Export Plug-In . SVG Version: 6.00 Build 0)  -->
<!DOCTYPE svg PUBLIC "-//W3C//DTD SVG 1.1//EN" "http://www.w3.org/Graphics/SVG/1.1/DTD/svg11.dtd">
<svg version="1.1" id="图层_1" xmlns="http://www.w3.org/2000/svg" xmlns:xlink="http://www.w3.org/1999/xlink" x="0px" y="0px"
	 width="23.775px" height="30.32px" viewBox="0 0 23.775 30.32" enable-background="new 0 0 23.775 30.32" xml:space="preserve">
<path fill="#AACE39" enable-background="new    " d="M21.222,18.797L21.222,18.797c1.417-1.924,2.265-4.292,2.265-6.864
	c0-6.406-5.193-11.599-11.599-11.599c-6.406,0-11.599,5.193-11.599,11.599c0,2.572,0.848,4.94,2.265,6.864l0,0l0.318,0.426
	c0.055,0.066,0.11,0.133,0.167,0.198l8.85,10.563l8.855-10.57c0.052-0.062,0.104-0.124,0.156-0.187L21.222,18.797z"/>
<circle fill="#8FB562" cx="11.888" cy="11.932" r="6.865"/>
<circle fill="#FFFFFF" cx="11.888" cy="11.932" r="6.364"/>
<circle fill="#E5E5E5" cx="11.888" cy="11.932" r="6.107"/>
</svg>
