<?xml version="1.0" encoding="utf-8"?>
<!-- Generator: Adobe Illustrator 16.0.0, SVG Export Plug-In . SVG Version: 6.00 Build 0)  -->
<!DOCTYPE svg PUBLIC "-//W3C//DTD SVG 1.1//EN" "http://www.w3.org/Graphics/SVG/1.1/DTD/svg11.dtd">
<svg version="1.1" id="图层_1" xmlns="http://www.w3.org/2000/svg" xmlns:xlink="http://www.w3.org/1999/xlink" x="0px" y="0px"
	 width="20px" height="20px" viewBox="0 0 20 20" enable-background="new 0 0 20 20" xml:space="preserve">
<g>
	<circle fill="#FF8C5C" cx="10" cy="10" r="10"/>
	<path fill="#FFFFFF" d="M11.832,14.52l-1.382-1.845l0.46-0.923l-0.921-0.921l-0.923,0.921l0.462,0.923L8.143,14.52H11.832z
		 M11.986,10.833c-0.188-0.13-0.373-0.561-0.473-0.775c-0.101-0.016-0.201-0.028-0.304-0.043c0.017-0.332,0.222-0.351,0.304-0.604
		c0.068-0.223,0.006-0.513,0.119-0.721c0.077-0.143,0.254-0.144,0.344-0.268c0.078-0.111,0.133-0.306,0.157-0.444
		c0.043-0.249,0.084-0.592-0.034-0.839c-0.068-0.143-0.11-0.158-0.132-0.33c-0.021-0.21,0.063-0.893,0.065-1.042
		c0.011-0.384,0-0.413-0.094-0.787c0,0-0.11-0.34-0.287-0.441L11.3,4.479l-0.219-0.201C10.203,3.737,9.263,4.116,8.76,4.321
		C8.036,4.557,7.577,5.267,7.896,6.785c0.055,0.26-0.142,0.375-0.128,0.518c0.028,0.31,0.034,1.053,0.325,1.235
		c0.028,0.019,0.235,0.069,0.232,0.055c0.029,0.302,0.058,0.604,0.089,0.904c0.07,0.199,0.247,0.223,0.298,0.505l-0.225,0.056
		c-0.102,0.215-0.285,0.645-0.474,0.775 M9.293,13.111l-1.753-2.15c0,0-1.168,0.498-1.721,0.732
		c-0.506,0.214-1.108,0.289-1.292,0.816c0,0.359-0.035,1.631-0.025,2.1h10.996c0.012-0.469-0.025-1.738-0.025-2.1
		c-0.184-0.527-0.785-0.604-1.289-0.816c-0.556-0.234-1.724-0.732-1.724-0.732l-1.692,2.15"/>
</g>
</svg>
