<?xml version="1.0" encoding="utf-8"?>
<!-- Generator: Adobe Illustrator 16.0.0, SVG Export Plug-In . SVG Version: 6.00 Build 0)  -->
<!DOCTYPE svg PUBLIC "-//W3C//DTD SVG 1.1//EN" "http://www.w3.org/Graphics/SVG/1.1/DTD/svg11.dtd">
<svg version="1.1" id="图层_1" xmlns="http://www.w3.org/2000/svg" xmlns:xlink="http://www.w3.org/1999/xlink" x="0px" y="0px"
	 width="20px" height="20px" viewBox="0 0 20 20" enable-background="new 0 0 20 20" xml:space="preserve">
<g>
	<circle fill="#71B33E" cx="10" cy="10" r="10"/>
	<circle fill="#DE3E33" cx="10" cy="10" r="10"/>
	<path fill="#FFFFFF" d="M13.116,6.116c0.04,0.022,0.079,0.047,0.118,0.073l0.117,0.081l0.004,0.143
		c0.008,0.413-0.043,0.764-0.15,1.034c-0.102,0.247-0.249,0.431-0.446,0.543c-0.136,0.481-0.294,0.927-0.518,1.302
		c-0.261,0.43-0.601,0.763-1.082,0.942c-0.214,0.078-0.766,0.116-1.295,0.108c-0.512-0.007-1.024-0.058-1.229-0.152
		C8.198,9.987,7.891,9.648,7.658,9.226C7.457,8.865,7.315,8.446,7.19,8.001C6.985,7.895,6.831,7.71,6.728,7.462
		C6.614,7.191,6.563,6.835,6.569,6.413l0.003-0.145L6.69,6.189c0.031-0.021,0.061-0.04,0.092-0.058
		C6.648,4.474,6.698,3.861,7.313,3.16c1.202-0.983,3.955-0.949,5.171-0.057C13.313,3.885,13.371,4.762,13.116,6.116L13.116,6.116z
		 M10.593,10.912l0.019,0.38l-0.224,0.372l0.313,2.061l1.286-2.765l1.957-0.067c1.012,0.957,1.66,3.209,1.5,4.681
		c-3.635,0-7.272,0-10.91,0c0.027-1.292,0.264-3.495,1.55-4.617l1.768,0.019l1.657,2.731l0.312-2.041l-0.225-0.372l0.017-0.38
		C10.039,10.887,10.165,10.887,10.593,10.912L10.593,10.912z M12.059,5.527c-0.776,0.153-1.936,0.285-2.853-0.229
		C8.855,5.099,8.339,5.505,7.917,5.464c-0.13,0.259-0.228,0.542-0.285,0.842l-0.047,0.25L7.334,6.53
		C7.289,6.526,7.24,6.531,7.189,6.548C7.167,6.556,7.145,6.565,7.121,6.576c0.007,0.275,0.046,0.505,0.117,0.675
		C7.3,7.402,7.389,7.5,7.503,7.536l0.146,0.045l0.04,0.147C7.812,8.183,7.948,8.612,8.141,8.96C8.32,9.285,8.55,9.542,8.868,9.688
		C9.001,9.749,9.427,9.784,9.87,9.791c0.473,0.006,0.942-0.019,1.099-0.077c0.352-0.129,0.602-0.378,0.799-0.705
		c0.211-0.353,0.36-0.798,0.491-1.288l0.037-0.14l0.14-0.049c0.108-0.04,0.195-0.139,0.256-0.291
		c0.068-0.171,0.105-0.395,0.111-0.666c-0.02-0.01-0.041-0.019-0.06-0.024c-0.05-0.018-0.099-0.025-0.144-0.022l-0.242,0.016
		l-0.047-0.24C12.26,6.03,12.173,5.767,12.059,5.527z"/>
</g>
</svg>
