<?xml version="1.0" encoding="utf-8"?>
<!-- Generator: Adobe Illustrator 16.0.0, SVG Export Plug-In . SVG Version: 6.00 Build 0)  -->
<!DOCTYPE svg PUBLIC "-//W3C//DTD SVG 1.1//EN" "http://www.w3.org/Graphics/SVG/1.1/DTD/svg11.dtd">
<svg version="1.1" id="图层_1" xmlns="http://www.w3.org/2000/svg" xmlns:xlink="http://www.w3.org/1999/xlink" x="0px" y="0px"
	 width="20px" height="20px" viewBox="0 0 20 20" enable-background="new 0 0 20 20" xml:space="preserve">
<g>
	<circle fill="#71B33E" cx="10" cy="10" r="10"/>
	<circle fill="#71B33E" cx="10" cy="10" r="10"/>
	<path fill="#FFFFFF" d="M10.053,13.539c0,0,0.528,0,0.528,0.423c0,1.586-0.528,2.644-0.528,2.644s-0.529-1.058-0.529-2.644
		C9.524,13.592,10.053,13.539,10.053,13.539z M10.423,16.34l1.003-2.378l-0.475-0.476l0.581-1.372l-1.375,0.315
		c0.265,0.053,0.423,0.264,0.423,0.528c0,0.315-0.264,0.528-0.581,0.528s-0.582-0.266-0.582-0.528c0-0.265,0.212-0.478,0.477-0.528
		l-1.32-0.315l0.475,1.372l-0.371,0.476l1.004,2.378c-1.215,0-5.283-0.212-5.442-1.32c0-0.317,0.582-2.061,3.857-2.642
		c0.317-0.158,0.581-0.317,0.581-0.423c0-0.16,0-0.74,0-0.74s-1.637-1.32-1.637-3.486l0,0l0,0l0,0l0,0c0-0.106,0-0.211,0-0.317
		C7.412,7.781,8.574,8.098,10,8.098s2.588-0.264,2.959-0.687c0,0.106,0,0.211,0,0.317l0,0l0,0l0,0l0,0
		c0,2.166-1.637,3.486-1.637,3.486s0,0.58,0,0.74c0,0.159,0.314,0.315,0.58,0.423c3.274,0.581,3.855,2.323,3.855,2.641
		C15.706,16.128,11.639,16.34,10.423,16.34z M6.989,6.566c0.686-0.159,1.744-0.264,2.958-0.264c1.321,0,2.483,0.158,3.17,0.37v0.264
		c0,0.528-1.374,0.951-3.064,0.951c-1.691,0-3.064-0.422-3.064-0.951C6.989,6.882,6.989,6.566,6.989,6.566z M13.698,5.457
		c-0.212,0.422-0.581,0.951-0.581,0.951v0.105c-0.688-0.21-1.85-0.316-3.17-0.316c-1.215,0-2.272,0.105-2.958,0.264V6.408
		c0,0-0.37-0.581-0.581-0.951C6.302,5.245,6.249,4.981,6.196,4.823c-0.052-0.159,0.052-0.317,0.211-0.37
		c0.528-0.211,1.69-0.74,2.167-0.951C8.732,3.449,8.89,3.396,9.049,3.396c0.369,0,1.004,0,1.004,0s0.632,0,1.001,0
		c0.159,0,0.37,0.053,0.478,0.106c0.476,0.211,1.637,0.687,2.166,0.951c0.157,0.106,0.264,0.211,0.21,0.37
		C13.855,4.981,13.805,5.245,13.698,5.457z"/>
</g>
</svg>
