<?xml version="1.0" encoding="utf-8"?>
<!-- Generator: Adobe Illustrator 16.0.0, SVG Export Plug-In . SVG Version: 6.00 Build 0)  -->
<!DOCTYPE svg PUBLIC "-//W3C//DTD SVG 1.1//EN" "http://www.w3.org/Graphics/SVG/1.1/DTD/svg11.dtd">
<svg version="1.1" id="图层_1" xmlns="http://www.w3.org/2000/svg" xmlns:xlink="http://www.w3.org/1999/xlink" x="0px" y="0px"
	 width="50px" height="50px" viewBox="0 0 50 50" enable-background="new 0 0 50 50" xml:space="preserve">
<circle fill="#FFFFFF" cx="25" cy="25" r="25"/>
<g>
	<path fill="#667D26" d="M14.042,34.242V12.5h-1.715v23.455c0,0.758,0.787,1.545,1.544,1.545h23.8v-1.715H15.584
		C14.829,35.785,14.042,34.999,14.042,34.242z"/>
	<path fill="#667D26" d="M22.815,18.823l3.571,3.574l8.038-7.149l1.789,1.787v-4.459H31.75l1.781,1.788l-7.146,6.247l-3.571-3.576
		l-6.25,6.25l0.9,0.896L22.815,18.823z M30.85,33.996h5.363V21.265l-5.363,4.459V33.996z"/>
	<path fill="#667D26" d="M21.924,25.724l-5.359,5.365v2.907h5.359V25.724z M23.715,33.996h5.35v-7.373L26.39,29.3l-2.675-3.576
		V33.996z"/>
</g>
</svg>
