<?xml version="1.0" encoding="utf-8"?>
<!-- Generator: Adobe Illustrator 16.0.0, SVG Export Plug-In . SVG Version: 6.00 Build 0)  -->
<!DOCTYPE svg PUBLIC "-//W3C//DTD SVG 1.1//EN" "http://www.w3.org/Graphics/SVG/1.1/DTD/svg11.dtd">
<svg version="1.1" id="图层_1" xmlns="http://www.w3.org/2000/svg" xmlns:xlink="http://www.w3.org/1999/xlink" x="0px" y="0px"
	 width="50px" height="50px" viewBox="0 0 50 50" enable-background="new 0 0 50 50" xml:space="preserve">
<circle fill="#FFFFFF" cx="25" cy="25" r="25"/>
<path fill="#B32329" d="M34.588,29.275c0-3.676-4.199-3.676-4.199-8.926c0-2.17-1.316-4.03-3.193-4.831
	c0.027-0.135,0.043-0.275,0.043-0.418c0-1.16-0.939-2.101-2.102-2.101c-1.158,0-2.1,0.94-2.1,2.101c0,0.143,0.016,0.283,0.043,0.418
	c-1.875,0.801-3.191,2.661-3.191,4.831c0,5.25-4.201,5.25-4.201,8.926c0,1.602,2.639,2.96,6.314,3.463
	c-0.004,0.07-0.014,0.139-0.014,0.212c0,1.739,1.41,3.149,3.15,3.149c1.738,0,3.148-1.41,3.148-3.149
	c0-0.073-0.008-0.142-0.014-0.212C31.949,32.235,34.588,30.877,34.588,29.275 M25.137,14.049c0.58,0,1.051,0.472,1.051,1.052
	c0,0.578-0.471,1.048-1.051,1.048c-0.578,0-1.049-0.47-1.049-1.048C24.088,14.521,24.559,14.049,25.137,14.049 M18.268,26.422
	c1.189-1.243,2.67-2.793,2.67-6.072c0-1.756,1.084-3.26,2.615-3.887c0.387,0.447,0.949,0.737,1.584,0.737
	c0.639,0,1.201-0.29,1.586-0.737c1.533,0.627,2.615,2.131,2.615,3.887c0,3.279,1.48,4.829,2.672,6.072
	c0.225,0.238,0.436,0.457,0.623,0.676c-1.004,0.957-3.973,1.652-7.496,1.652c-3.518,0-6.488-0.693-7.496-1.649
	C17.828,26.883,18.039,26.66,18.268,26.422 M25.137,35.05c-1.158,0-2.1-0.94-2.1-2.1c0-0.032,0.008-0.062,0.01-0.094
	c0.674,0.059,1.371,0.094,2.09,0.094c0.721,0,1.42-0.035,2.094-0.094c0.002,0.032,0.008,0.062,0.008,0.094
	C27.238,34.109,26.299,35.05,25.137,35.05 M25.137,31.899c-5.434,0-8.398-1.733-8.398-2.624c0-0.566,0.135-1.01,0.359-1.415
	c1.438,1.146,4.494,1.939,8.039,1.939c3.551,0,6.604-0.795,8.039-1.94c0.225,0.403,0.361,0.85,0.361,1.416
	C33.537,30.166,30.572,31.899,25.137,31.899 M34.801,23.559l-0.01,0.016c-0.076-0.045-0.162-0.078-0.258-0.078
	c-0.289,0-0.521,0.235-0.521,0.525c0,0.184,0.1,0.339,0.242,0.432v0.003c1.508,0.877,2.539,2.63,2.539,4.651
	c0,2.02-1.029,3.77-2.533,4.648l0.004,0.005c-0.145,0.095-0.244,0.249-0.244,0.434c0,0.289,0.234,0.524,0.523,0.524
	c0.096,0,0.182-0.032,0.26-0.078l0.006,0.013c1.805-1.065,3.033-3.148,3.033-5.546C37.842,26.707,36.611,24.622,34.801,23.559
	 M37.086,21.295l-0.01,0.017c-0.084-0.056-0.176-0.095-0.283-0.095c-0.289,0-0.523,0.234-0.523,0.524
	c0,0.172,0.088,0.318,0.215,0.413c2.086,1.511,3.457,4.062,3.457,6.953c0,2.894-1.371,5.443-3.457,6.955l0.006,0.006
	c-0.123,0.096-0.207,0.239-0.207,0.406c0,0.291,0.236,0.525,0.525,0.525c0.105,0,0.199-0.039,0.283-0.095l0.004,0.007
	c0.027-0.018,0.051-0.043,0.078-0.063c0.002-0.002,0.004-0.004,0.006-0.006c2.303-1.709,3.813-4.533,3.813-7.736
	C40.992,25.859,39.443,22.996,37.086,21.295 M15.199,23.559c-1.811,1.063-3.041,3.148-3.041,5.549c0,2.397,1.227,4.48,3.033,5.546
	l0.006-0.013c0.078,0.046,0.164,0.078,0.258,0.078c0.291,0,0.525-0.235,0.525-0.524c0-0.185-0.1-0.339-0.244-0.434l0.004-0.005
	c-1.504-0.879-2.533-2.629-2.533-4.648c0-2.021,1.031-3.774,2.541-4.651l-0.002-0.003c0.143-0.093,0.244-0.248,0.244-0.432
	c0-0.29-0.234-0.525-0.525-0.525c-0.094,0-0.18,0.033-0.256,0.078L15.199,23.559 M12.914,21.295
	c-2.357,1.701-3.906,4.564-3.906,7.813c0,3.203,1.51,6.027,3.811,7.736c0.004,0.002,0.008,0.004,0.008,0.006
	c0.027,0.02,0.051,0.045,0.078,0.063l0.004-0.007C12.992,36.961,13.086,37,13.191,37c0.291,0,0.525-0.234,0.525-0.525
	c0-0.167-0.082-0.311-0.205-0.406l0.004-0.006c-2.086-1.512-3.457-4.062-3.457-6.955c0-2.892,1.371-5.442,3.457-6.953
	c0.127-0.095,0.215-0.241,0.215-0.413c0-0.29-0.234-0.524-0.523-0.524c-0.107,0-0.199,0.039-0.283,0.095L12.914,21.295"/>
</svg>
