<?xml version="1.0" encoding="utf-8"?>
<!-- Generator: Adobe Illustrator 16.0.0, SVG Export Plug-In . SVG Version: 6.00 Build 0)  -->
<!DOCTYPE svg PUBLIC "-//W3C//DTD SVG 1.1//EN" "http://www.w3.org/Graphics/SVG/1.1/DTD/svg11.dtd">
<svg version="1.1" id="图层_1" xmlns="http://www.w3.org/2000/svg" xmlns:xlink="http://www.w3.org/1999/xlink" x="0px" y="0px"
	 width="20px" height="20px" viewBox="0 0 20 20" enable-background="new 0 0 20 20" xml:space="preserve">
<g>
	<path fill="#667D26" d="M15.85,6.341c0-3.193-2.623-5.791-5.85-5.791c-3.227,0-5.852,2.598-5.852,5.791
		c0,3.193,2.625,5.791,5.852,5.791C13.227,12.132,15.85,9.534,15.85,6.341z M10,10.934c-2.565,0-4.652-2.062-4.652-4.593
		C5.348,3.81,7.435,1.75,10,1.75c2.564,0,4.65,2.06,4.65,4.591C14.65,8.872,12.564,10.934,10,10.934z"/>
	<path fill="#667D26" d="M6.664,11.871C6.615,11.893,1.7,13.943,1.7,18.837c0,0.313,0.281,0.567,0.628,0.567
		c0.347,0,0.628-0.254,0.628-0.567c0-4.192,4.051-5.858,4.226-5.928c0.165-0.068,0.29-0.197,0.343-0.354
		c0.048-0.146,0.029-0.306-0.051-0.438C7.322,11.866,6.969,11.752,6.664,11.871z"/>
	<path fill="#667D26" d="M13.332,11.913c-0.296-0.115-0.657-0.004-0.809,0.247c-0.08,0.133-0.099,0.293-0.049,0.439
		c0.053,0.158,0.18,0.287,0.344,0.353c0.173,0.071,4.224,1.758,4.224,5.929c0,0.313,0.282,0.569,0.63,0.569s0.628-0.257,0.628-0.569
		C18.3,13.958,13.382,11.934,13.332,11.913z"/>
</g>
</svg>
