<?xml version="1.0" encoding="utf-8"?>
<!-- Generator: Adobe Illustrator 16.0.0, SVG Export Plug-In . SVG Version: 6.00 Build 0)  -->
<!DOCTYPE svg PUBLIC "-//W3C//DTD SVG 1.1//EN" "http://www.w3.org/Graphics/SVG/1.1/DTD/svg11.dtd">
<svg version="1.1" id="图层_1" xmlns="http://www.w3.org/2000/svg" xmlns:xlink="http://www.w3.org/1999/xlink" x="0px" y="0px"
	 width="20px" height="20px" viewBox="2.672 2.5 20 20" enable-background="new 2.672 2.5 20 20" xml:space="preserve">
<circle fill="#F200BF" cx="12.672" cy="12.5" r="10"/>
<g>
	<path fill="#FFFFFF" d="M10.23,8.823h9.692v4.618H10.23V8.823z"/>
	<path fill="#FFFFFF" d="M17.459,13.82c0.322,0.261,0.532,0.654,0.55,1.098h1.042l0.871-0.265V13.82H17.459z M7.419,13.489
		c0.801,0,1.454,0.634,1.484,1.429h6.137c0.017-0.443,0.227-0.837,0.549-1.098H9.511V9.921l-3.142,0.228L5.422,12.42v2.238
		c0,0.255,0.341,0.26,0.341,0.26h0.171C5.964,14.123,6.617,13.489,7.419,13.489z M6.955,10.565l1.761-0.114v1.628l-2.423,0.246
		L6.955,10.565z"/>
	<path fill="#FFFFFF" d="M6.217,14.975c0,0.664,0.539,1.202,1.203,1.202c0.664,0,1.202-0.538,1.202-1.202l0,0
		c0-0.663-0.539-1.202-1.202-1.202C6.755,13.772,6.217,14.312,6.217,14.975L6.217,14.975z"/>
	<path fill="#FFFFFF" d="M15.36,14.975c0,0.664,0.538,1.202,1.201,1.202c0.664,0,1.202-0.538,1.202-1.202
		c0-0.663-0.538-1.202-1.202-1.202C15.898,13.772,15.36,14.312,15.36,14.975z"/>
</g>
</svg>
