<?xml version="1.0" encoding="utf-8"?>
<!-- Generator: Adobe Illustrator 16.0.0, SVG Export Plug-In . SVG Version: 6.00 Build 0)  -->
<!DOCTYPE svg PUBLIC "-//W3C//DTD SVG 1.1//EN" "http://www.w3.org/Graphics/SVG/1.1/DTD/svg11.dtd">
<svg version="1.1" id="图层_1" xmlns="http://www.w3.org/2000/svg" xmlns:xlink="http://www.w3.org/1999/xlink" x="0px" y="0px"
	 width="20px" height="20px" viewBox="2.672 2.5 20 20" enable-background="new 2.672 2.5 20 20" xml:space="preserve">
<circle fill="#89B900" cx="12.672" cy="12.5" r="10"/>
<g>
	<path fill="#FFFFFF" d="M6.721,7.94l-0.264,3.771l0.074,0.031L6.79,8.035C6.779,8.023,6.732,7.96,6.721,7.94z"/>
	<path fill="#FFFFFF" d="M7.508,7.496C7.46,7.463,7.404,7.457,7.383,7.484l-0.1,0.13c-0.021,0.027,0.001,0.076,0.05,0.11
		l3.654,2.533c0.049,0.034,0.105,0.039,0.125,0.012l0.1-0.131c0.021-0.026-0.002-0.076-0.049-0.109L7.508,7.496z"/>
	<path fill="#FFFFFF" d="M10.403,9.44c-0.016-0.011-0.05,0.008-0.076,0.043L10.2,9.649c-0.026,0.035-0.036,0.071-0.021,0.082
		l1.163,0.805c0.015,0.011,0.049-0.008,0.075-0.042l0.127-0.167c0.026-0.034,0.035-0.071,0.021-0.082L10.403,9.44z"/>
	<path fill="#FFFFFF" d="M15.555,13.171v-0.316l-4.238-2.938c-0.063-0.043-0.148-0.035-0.19,0.021l-0.204,0.267
		c-0.042,0.055-0.025,0.135,0.038,0.179l4.023,2.788H15.555L15.555,13.171z"/>
	<path fill="#FFFFFF" d="M6.478,7.606C6.472,7.601,6.467,7.595,6.462,7.588l-0.131,4.207l0.076,0.015l0.128-4.131
		C6.512,7.659,6.492,7.634,6.478,7.606z"/>
	<path fill="#FFFFFF" d="M5.896,6.973c-0.03-0.017-0.055-0.042-0.074-0.069l0.339,4.839l0.073-0.031L5.903,6.982
		C5.901,6.979,5.898,6.977,5.896,6.973z"/>
	<path fill="#FFFFFF" d="M6.13,7.165C6.125,7.164,6.12,7.162,6.116,7.159L6.26,11.81l0.076-0.015L6.194,7.239
		C6.168,7.219,6.146,7.194,6.13,7.165z"/>
	<path fill="#FFFFFF" d="M14.893,16.321L6.959,6.958c0,0-1.07-0.596-1.211-0.317c-0.14,0.278,0.35,0.417,0.57,0.77
		c0.17,0.273,4.595,6.248,6.567,8.91H14.893L14.893,16.321z"/>
	<path fill="#FFFFFF" d="M14.62,15.951c0,0.02,0.054,0.035,0.121,0.035h2.541c0.065,0,0.122-0.016,0.122-0.035v-0.135
		c0-0.021-0.057-0.035-0.122-0.035h-2.541c-0.067,0-0.121,0.015-0.121,0.035V15.951z"/>
	<path fill="#FFFFFF" d="M15.214,16.223c0,0.046,0.055,0.082,0.122,0.082h1.351c0.068,0,0.123-0.036,0.123-0.082V16.07
		c0-0.047-0.055-0.084-0.123-0.084h-1.351c-0.067,0-0.122,0.037-0.122,0.084V16.223z"/>
	<path fill="#FFFFFF" d="M18.79,12.019c0-0.156-0.133-0.282-0.296-0.282h-2.568c-0.164,0-0.295,0.126-0.295,0.282l-0.091,1.15
		h-2.712c-0.164,0-0.398,0.235-0.297,0.354c0.183,0.214,1.825,2.152,1.917,2.258c0,0,0.25-0.016,0.354-0.009
		c0.331,0.029,0.681,0.014,1.013,0.013c0.769-0.002,1.537-0.001,2.306,0.009c0.174,0.003,0.349,0.004,0.522,0.004
		c0.163,0,0.297-0.126,0.297-0.282L18.79,12.019z M18.494,14.945c0,0.064-0.06,0.09-0.107,0.078c-0.109,0-2.183,0.01-2.391,0.001
		c-0.124-0.007-0.247,0.042-0.253-0.137c-0.001-0.03,0.002-0.062,0.005-0.092c0.046-0.509,0.26-2.33,0.328-2.752
		c0.004-0.025,0.009-0.044,0.022-0.057c0.001-0.001,0.002-0.001,0.002-0.002c0.002-0.001,0.003-0.001,0.003-0.003
		c0.013-0.013,0.033-0.022,0.057-0.022c0.005,0,0.008,0,0.013,0.001c0.004,0,0.007-0.001,0.011-0.001h2.168
		c0.013,0,0.024,0.002,0.034,0.007c0.001,0,0.003,0.001,0.004,0.001c0.049-0.015,0.112,0.01,0.11,0.077
		C18.499,12.071,18.494,14.878,18.494,14.945z"/>
	<path fill="#FFFFFF" d="M6.145,11.482c0.072,0,0.127,0.061,0.127,0.141c0,0,0,0.007,0,0.011c0.046,0,0.098,0,0.145,0
		c0-0.003,0-0.011,0-0.011c0-0.08,0.057-0.141,0.127-0.141h0.069c0.072,0,0.128,0.061,0.128,0.141c0,0,0,0.007,0,0.011h0.003
		c0.071,0,0.128,0.044,0.128,0.099v0.104c0,0.023-0.032,0.096-0.063,0.119c0,0-0.292,0.22-0.32,0.241
		c-0.001,0.021-0.001,0.065-0.001,0.077c0.008,0.008,0.032,0.021,0.051,0.031l0.103,0.063c0.067,0.05,0.19,0.162,0.19,0.312
		c0,0.057-0.018,0.118-0.061,0.184C6.705,12.96,6.619,13.02,6.515,13.04c-0.102,0.018-0.22-0.005-0.324-0.065
		c-0.164-0.094-0.217-0.249-0.234-0.363c-0.005-0.041-0.018-0.075-0.028-0.101c-0.016-0.042-0.028-0.075,0-0.102
		c0.027-0.026,0.074-0.022,0.091-0.021c0.112,0.01,0.156,0.105,0.192,0.181l0.027,0.054c0.02,0.033,0.055,0.058,0.092,0.062
		c0.03,0.005,0.061-0.006,0.088-0.029c0.021-0.018,0.027-0.038,0.027-0.056c0-0.011-0.002-0.021-0.005-0.03
		c-0.015-0.042-0.058-0.079-0.102-0.088c-0.121-0.024-0.144-0.19-0.146-0.298c-0.027-0.021-0.313-0.236-0.313-0.236
		c-0.024-0.02-0.063-0.084-0.063-0.113v-0.104c0-0.055,0.057-0.099,0.127-0.099h0.002c0-0.003,0-0.011,0-0.011
		c0-0.08,0.058-0.141,0.128-0.141H6.145z"/>
	<path fill="#FFFFFF" d="M5.943,11.674h0.052v-0.05c0-0.056,0.034-0.101,0.077-0.101h0.069c0.043,0,0.08,0.044,0.081,0.101v0.05
		l0.241,0v-0.051c0-0.056,0.035-0.101,0.079-0.101h0.069c0.043,0,0.079,0.044,0.079,0.1l0,0.051h0.052
		c0.043,0,0.08,0.026,0.08,0.059l0,0.104c0,0.015-0.027,0.075-0.047,0.09l-0.333,0.254c0,0.025-0.001,0.082-0.002,0.102
		c0,0.026,0.093,0.058,0.17,0.114c0.076,0.056,0.269,0.226,0.121,0.448c-0.148,0.222-0.373,0.179-0.508,0.102
		c-0.136-0.077-0.197-0.208-0.215-0.335s-0.096-0.188,0.009-0.18c0.106,0.009,0.138,0.137,0.182,0.212
		c0.044,0.076,0.164,0.125,0.259,0.042c0.095-0.083,0.004-0.217-0.104-0.239c-0.087-0.017-0.11-0.174-0.11-0.278l-0.33-0.246
		c-0.016-0.012-0.049-0.068-0.049-0.083v-0.103C5.864,11.701,5.899,11.674,5.943,11.674z"/>
	<path fill="#FFFFFF" d="M18.505,16.31h-6.138c-0.616,0-1.116,0.476-1.116,1.063c0,0.586,0.5,1.061,1.116,1.061h6.138
		c0.616,0,1.115-0.475,1.115-1.061C19.62,16.785,19.121,16.31,18.505,16.31z M18.271,18.038c-0.224,0-0.426-0.113-0.55-0.283H13.05
		c-0.125,0.17-0.327,0.283-0.551,0.283c-0.372,0-0.682-0.312-0.682-0.684s0.31-0.683,0.682-0.683c0.239,0,0.452,0.128,0.575,0.318
		h4.622c0.122-0.19,0.336-0.318,0.575-0.318c0.371,0,0.683,0.311,0.683,0.683S18.642,18.038,18.271,18.038z"/>
</g>
</svg>
