<?xml version="1.0" encoding="utf-8"?>
<!-- Generator: Adobe Illustrator 16.0.0, SVG Export Plug-In . SVG Version: 6.00 Build 0)  -->
<!DOCTYPE svg PUBLIC "-//W3C//DTD SVG 1.1//EN" "http://www.w3.org/Graphics/SVG/1.1/DTD/svg11.dtd">
<svg version="1.1" id="图层_1" xmlns="http://www.w3.org/2000/svg" xmlns:xlink="http://www.w3.org/1999/xlink" x="0px" y="0px"
	 width="20px" height="20px" viewBox="2.672 2.5 20 20" enable-background="new 2.672 2.5 20 20" xml:space="preserve">
<circle fill="#BD412A" cx="12.672" cy="12.5" r="10"/>
<path fill="#FFFFFF" d="M5.508,12.649v2.678c0,0.251,0.205,0.454,0.454,0.454h1.595c0.242-0.739,0.938-1.274,1.757-1.274
	c0.818,0,1.512,0.535,1.755,1.274h2.662c0.232-0.754,0.936-1.303,1.765-1.303s1.532,0.549,1.766,1.303h1.154
	c0.249,0,0.452-0.203,0.452-0.454v-1.339h-8.588c-0.141-0.024-0.353-0.113-0.366-0.447c-0.002-0.012-0.003-0.02-0.004-0.029v-0.115
	V8.763H8.453c-0.251,0-0.574,0.165-0.721,0.366l-1.958,2.7C5.628,12.031,5.508,12.4,5.508,12.649z M6.377,12.799v-0.074
	c0-0.249,0.116-0.62,0.26-0.824l1.471-2.088C8.25,9.608,8.539,9.441,8.749,9.441s0.383,0.203,0.383,0.453v2.904
	c0,0.249-0.205,0.454-0.455,0.454H6.829C6.58,13.253,6.377,13.048,6.377,12.799L6.377,12.799z M14.005,16.329
	c0,0.821,0.668,1.489,1.489,1.489c0.822,0,1.49-0.668,1.49-1.489c0-0.823-0.668-1.491-1.49-1.491
	C14.673,14.838,14.005,15.506,14.005,16.329z M14.484,16.329c0-0.558,0.453-1.013,1.01-1.013c0.559,0,1.011,0.455,1.011,1.013
	c0,0.557-0.452,1.01-1.011,1.01C14.938,17.339,14.484,16.886,14.484,16.329z M7.865,16.329c0,0.797,0.65,1.444,1.447,1.444
	s1.445-0.647,1.445-1.444c0-0.798-0.648-1.447-1.445-1.447S7.865,15.531,7.865,16.329z M8.346,16.329
	c0-0.534,0.434-0.968,0.967-0.968c0.532,0,0.966,0.435,0.966,0.968c0,0.532-0.434,0.965-0.966,0.965
	C8.779,17.294,8.346,16.861,8.346,16.329z M10.802,13.574H19.4c0.24,0,0.437-0.195,0.437-0.436V7.617
	c0-0.239-0.196-0.437-0.437-0.437h-8.599c-0.241,0-0.438,0.197-0.438,0.437v5.521C10.364,13.379,10.561,13.574,10.802,13.574z"/>
</svg>
